<svg width="16" height="16" viewBox="0 0 16 16" fill="none" xmlns="http://www.w3.org/2000/svg">
<path fill-rule="evenodd" clip-rule="evenodd" d="M12.5413 4.00208C12.5413 3.33749 11.905 2.85779 11.2661 3.04069L6.59614 4.37749C6.16708 4.50032 5.87134 4.89259 5.87134 5.33888V5.97708C5.87134 5.99303 5.87171 6.00887 5.87243 6.0246V10.4155C5.84453 10.4104 5.81684 10.4062 5.78949 10.4026C5.42148 10.3543 5.0064 10.4116 4.61709 10.5674C4.22976 10.7224 3.89498 10.9645 3.68361 11.2627C3.47347 11.5593 3.34624 11.9852 3.56784 12.393C3.77545 12.7752 4.18256 12.9358 4.53415 12.9819C4.90215 13.0302 5.31723 12.9729 5.70654 12.8171C6.09387 12.6621 6.42866 12.42 6.64002 12.1217C6.77758 11.9276 6.87962 11.6781 6.87152 11.4144H6.87243V6.97765C6.95926 6.97738 7.04793 6.96567 7.13676 6.94121L11.5476 5.72694V9.16391C11.5201 9.15897 11.4928 9.15475 11.4657 9.15121C11.0977 9.10293 10.6827 9.1602 10.2934 9.31601C9.90603 9.47103 9.57124 9.71313 9.35988 10.0114C9.14973 10.3079 9.0225 10.7338 9.24411 11.1417C9.45171 11.5238 9.85882 11.6844 10.2104 11.7305C10.5784 11.7788 10.9935 11.7216 11.3828 11.5657C11.7701 11.4107 12.1049 11.1686 12.3163 10.8704C12.4547 10.6751 12.5571 10.4237 12.5476 10.1583V4.19658H12.5413V4.00208ZM6.87243 5.97678L11.5413 4.69149V4.00208L6.87134 5.33888V5.41443H6.87243V5.97678ZM11.3357 10.1427C11.1559 10.1191 10.9133 10.145 10.6649 10.2444C10.4146 10.3446 10.2524 10.4815 10.1758 10.5896C10.1481 10.6287 10.1363 10.6549 10.1316 10.6704C10.1527 10.6869 10.2101 10.7219 10.3405 10.739C10.5203 10.7626 10.7629 10.7367 11.0112 10.6373C11.2616 10.5371 11.4238 10.4003 11.5004 10.2922C11.5281 10.2531 11.5398 10.2269 11.5445 10.2113C11.5235 10.1948 11.4661 10.1598 11.3357 10.1427ZM11.5467 10.1932C11.5472 10.1931 11.5478 10.1956 11.5469 10.2012C11.5458 10.1961 11.5462 10.1933 11.5467 10.1932ZM10.1295 10.6886C10.129 10.6887 10.1284 10.6862 10.1293 10.6806C10.1304 10.6856 10.13 10.6884 10.1295 10.6886ZM5.65942 11.3941C5.47962 11.3705 5.23703 11.3964 4.98866 11.4958C4.7383 11.596 4.57613 11.7328 4.4995 11.8409C4.47179 11.88 4.46006 11.9062 4.45538 11.9218C4.47643 11.9383 4.53379 11.9733 4.66421 11.9904C4.84401 12.014 5.0866 11.9881 5.33497 11.8887C5.58533 11.7885 5.74751 11.6516 5.82413 11.5435C5.85184 11.5044 5.86357 11.4782 5.86825 11.4627C5.8472 11.4462 5.78984 11.4112 5.65942 11.3941ZM5.87043 11.4446C5.87093 11.4444 5.8715 11.447 5.87063 11.4526C5.86949 11.4475 5.86993 11.4447 5.87043 11.4446ZM4.4532 11.9399C4.4527 11.9401 4.45213 11.9375 4.453 11.9319C4.45414 11.937 4.4537 11.9398 4.4532 11.9399Z" fill="#2A343D"/>
</svg>
