<svg width="16" height="16" viewBox="0 0 16 16" fill="none" xmlns="http://www.w3.org/2000/svg">
<path d="M13.8951 11.4298C13.6733 11.9422 13.4107 12.4139 13.1066 12.8475C12.6919 13.4387 12.3524 13.8479 12.0908 14.0751C11.6852 14.4481 11.2506 14.6392 10.7853 14.65C10.4512 14.65 10.0484 14.555 9.57942 14.3621C9.10893 14.1702 8.67655 14.0751 8.28119 14.0751C7.86656 14.0751 7.42186 14.1702 6.94621 14.3621C6.46983 14.555 6.08606 14.6554 5.79265 14.6654C5.34642 14.6844 4.90163 14.488 4.45766 14.0751C4.1743 13.828 3.81986 13.4043 3.39527 12.8041C2.93971 12.1631 2.56518 11.4198 2.27177 10.5724C1.95753 9.65716 1.8 8.77085 1.8 7.91279C1.8 6.92988 2.01239 6.08214 2.4378 5.37173C2.77214 4.80111 3.21692 4.35098 3.7736 4.02054C4.33028 3.6901 4.93178 3.52171 5.57954 3.51093C5.93397 3.51093 6.39876 3.62057 6.97636 3.83603C7.55232 4.05222 7.92214 4.16186 8.08429 4.16186C8.20551 4.16186 8.61634 4.03366 9.31281 3.77809C9.97143 3.54108 10.5273 3.44294 10.9827 3.4816C12.2166 3.58119 13.1437 4.06762 13.7602 4.94397C12.6566 5.61264 12.1107 6.54919 12.1216 7.75065C12.1315 8.68648 12.471 9.46524 13.1382 10.0836C13.4406 10.3706 13.7783 10.5924 14.154 10.7499C14.0725 10.9862 13.9865 11.2125 13.8951 11.4298ZM11.0651 0.293417C11.0651 1.02692 10.7971 1.71178 10.2629 2.34569C9.61835 3.09928 8.83869 3.53474 7.99321 3.46603C7.98244 3.37803 7.97619 3.28542 7.97619 3.18809C7.97619 2.48393 8.28273 1.73034 8.8271 1.11418C9.09888 0.802208 9.44453 0.542806 9.86369 0.335876C10.282 0.132034 10.6776 0.0193044 11.0497 0C11.0605 0.0980576 11.0651 0.196121 11.0651 0.293407V0.293417Z" fill="white"/>
</svg>
