<svg width="17" height="16" viewBox="0 0 17 16" fill="none" xmlns="http://www.w3.org/2000/svg">
<path d="M3.88018 9.14251L4.18348 9.4282L3.88018 9.14251ZM5.16646 9.50313L4.74979 9.50313L5.16646 9.50313ZM5.16646 12.1667L5.58313 12.1667L5.16646 12.1667ZM11.5112 4.51472L11.8471 4.26816L11.8471 4.26816L11.5112 4.51472ZM8.82256 4.51423L9.15836 4.76091L9.15836 4.76091L8.82256 4.51423ZM3.88024 6.85755L3.57691 7.14323L3.57691 7.14323L3.88024 6.85755ZM4.4967 9.25004C4.41818 9.25004 4.30675 9.29733 4.18348 9.4282L3.57687 8.85682C3.78144 8.63964 4.09708 8.4167 4.4967 8.4167L4.4967 9.25004ZM4.74979 9.50313C4.74979 9.36335 4.63648 9.25004 4.4967 9.25004L4.4967 8.4167C5.09672 8.4167 5.58313 8.90311 5.58313 9.50313L4.74979 9.50313ZM4.74979 12.1667L4.74979 9.50313L5.58313 9.50313L5.58313 12.1667L4.74979 12.1667ZM5.9998 13.4167C5.30944 13.4167 4.74979 12.857 4.74979 12.1667L5.58313 12.1667C5.58313 12.3968 5.76968 12.5833 5.9998 12.5833L5.9998 13.4167ZM14.3333 13.4167L5.9998 13.4167L5.9998 12.5833L14.3333 12.5833L14.3333 13.4167ZM15.5833 12.1667C15.5833 12.857 15.0237 13.4167 14.3333 13.4167L14.3333 12.5833C14.5634 12.5833 14.75 12.3968 14.75 12.1667L15.5833 12.1667ZM15.5833 3.83334L15.5833 12.1667L14.75 12.1667L14.75 3.83334L15.5833 3.83334ZM14.3333 2.58333C15.0237 2.58333 15.5833 3.14298 15.5833 3.83334L14.75 3.83334C14.75 3.60322 14.5634 3.41667 14.3333 3.41667L14.3333 2.58333ZM11.3655 2.58333L14.3333 2.58333L14.3333 3.41667L11.3655 3.41667L11.3655 2.58333ZM11.417 3.36517C11.417 3.63699 11.583 3.90833 11.8471 4.26816L11.1753 4.76127C10.9332 4.4314 10.5837 3.94892 10.5837 3.36517L11.417 3.36517ZM11.8471 4.26816C12.1003 4.61321 12.2501 5.03967 12.2501 5.49989L11.4167 5.49989C11.4167 5.22296 11.3272 4.96817 11.1753 4.76127L11.8471 4.26816ZM12.2501 5.49989C12.2501 6.6505 11.3173 7.58323 10.1667 7.58323L10.1667 6.74989C10.8571 6.74989 11.4167 6.19024 11.4167 5.49989L12.2501 5.49989ZM10.1667 7.58323C9.01608 7.58323 8.08332 6.6505 8.08332 5.49989L8.91666 5.49989C8.91666 6.19024 9.47631 6.74989 10.1667 6.74989L10.1667 7.58323ZM8.08332 5.49989C8.08332 5.0394 8.23321 4.61271 8.48675 4.26756L9.15836 4.76091C9.00633 4.96787 8.91666 5.2228 8.91666 5.49989L8.08332 5.49989ZM8.48675 4.26756C8.75099 3.90784 8.91696 3.63652 8.91696 3.36475L9.75031 3.36475C9.75031 3.94859 9.40066 4.43106 9.15836 4.76091L8.48675 4.26756ZM5.9998 2.58333L8.96889 2.58333L8.96889 3.41667L5.9998 3.41667L5.9998 2.58333ZM4.74979 3.83334C4.74979 3.14298 5.30944 2.58333 5.9998 2.58333L5.9998 3.41667C5.76968 3.41667 5.58313 3.60322 5.58313 3.83334L4.74979 3.83334ZM4.74979 6.49699L4.74979 3.83334L5.58313 3.83334L5.58313 6.49699L4.74979 6.49699ZM4.49674 6.75003C4.6365 6.75003 4.74979 6.63674 4.74979 6.49699L5.58313 6.49699C5.58313 7.09698 5.09674 7.58338 4.49674 7.58338L4.49674 6.75003ZM4.18356 6.57188C4.30682 6.70275 4.41823 6.75003 4.49674 6.75003L4.49674 7.58338C4.09711 7.58338 3.78147 7.36043 3.57691 7.14323L4.18356 6.57188ZM2.6667 5.91666C3.26457 5.91666 3.80416 6.16904 4.18356 6.57188L3.57691 7.14323C3.34841 6.90061 3.02548 6.75 2.6667 6.75L2.6667 5.91666ZM0.583329 8C0.583329 6.8494 1.51609 5.91666 2.6667 5.91666L2.6667 6.75C1.97632 6.75 1.41667 7.30965 1.41667 8L0.583329 8ZM2.6667 10.0833C1.51609 10.0833 0.583329 9.1506 0.583329 8L1.41667 8C1.41667 8.69035 1.97632 9.25 2.6667 9.25L2.6667 10.0833ZM4.18348 9.4282C3.80409 9.831 3.26453 10.0833 2.6667 10.0833L2.6667 9.25C3.02546 9.25 3.34837 9.09941 3.57687 8.85682L4.18348 9.4282ZM8.91696 3.36475C8.91696 3.39343 8.94021 3.41667 8.96889 3.41667L8.96889 2.58333C9.40045 2.58333 9.75031 2.93318 9.75031 3.36475L8.91696 3.36475ZM11.3655 3.41667C11.394 3.41667 11.417 3.39362 11.417 3.36517L10.5837 3.36517C10.5837 2.93337 10.9337 2.58333 11.3655 2.58333L11.3655 3.41667Z" fill="white"/>
</svg>
