<svg width="16" height="16" viewBox="0 0 16 16" fill="none" xmlns="http://www.w3.org/2000/svg">
<path fill-rule="evenodd" clip-rule="evenodd" d="M6.98811 1.71601L7.01531 1.71601H9.01239L9.03959 1.71601C9.25163 1.71597 9.45769 1.71592 9.62765 1.73878C9.81925 1.76454 10.0379 1.8273 10.2195 2.0089C10.4011 2.19051 10.4639 2.40915 10.4896 2.60075C10.5125 2.77071 10.5124 2.97677 10.5124 3.18881L10.5124 3.21601V3.71736H12.0522C12.8533 3.71736 13.5027 4.3668 13.5027 5.16792C13.5027 5.44406 13.2789 5.66792 13.0027 5.66792C12.7266 5.66792 12.5027 5.44406 12.5027 5.16792C12.5027 4.91908 12.301 4.71736 12.0522 4.71736H3.94788C3.69904 4.71736 3.49732 4.91908 3.49732 5.16792C3.49732 5.44406 3.27346 5.66792 2.99732 5.66792C2.72117 5.66792 2.49731 5.44406 2.49731 5.16792C2.49731 4.3668 3.14675 3.71736 3.94788 3.71736H5.51531V3.21601L5.5153 3.18881C5.51526 2.97677 5.51522 2.77071 5.53807 2.60075C5.56383 2.40915 5.62659 2.19051 5.8082 2.0089C5.98981 1.8273 6.20845 1.76454 6.40005 1.73878C6.57001 1.71592 6.77607 1.71597 6.98811 1.71601ZM6.52966 2.73036L6.52916 2.734C6.51637 2.8291 6.51531 2.96618 6.51531 3.21601V3.71601H9.51239V3.21601C9.51239 2.96618 9.51133 2.8291 9.49854 2.734L9.49804 2.73036L9.4944 2.72986C9.3993 2.71707 9.26223 2.71601 9.01239 2.71601H7.01531C6.76547 2.71601 6.62839 2.71707 6.5333 2.72986L6.52966 2.73036ZM4.51276 6.19446C4.78872 6.18439 5.02059 6.39994 5.03066 6.6759L5.17186 10.5457C5.19432 11.1611 5.21043 11.5896 5.25247 11.9214C5.29362 12.2461 5.35484 12.4307 5.44021 12.5695C5.57311 12.7857 5.7587 12.9646 5.9796 13.0896C6.12148 13.1698 6.30815 13.2243 6.63416 13.2536C6.96726 13.2835 7.39605 13.2839 8.01189 13.2839C8.63116 13.2839 9.06242 13.2835 9.39732 13.2533C9.72515 13.2238 9.91262 13.1689 10.0549 13.0881C10.2764 12.9622 10.4622 12.7819 10.5948 12.5643C10.6799 12.4246 10.7404 12.2388 10.7799 11.9121C10.8202 11.5782 10.8337 11.1472 10.8525 10.5282L10.9693 6.67897C10.9776 6.40296 11.2082 6.18599 11.4842 6.19436C11.7602 6.20273 11.9772 6.43328 11.9688 6.70929L11.852 10.5585L11.8513 10.5821C11.8334 11.1719 11.819 11.6481 11.7727 12.0319C11.7249 12.4279 11.6387 12.7728 11.4488 13.0845C11.2279 13.4472 10.9182 13.7476 10.549 13.9575C10.2316 14.1378 9.88422 14.2135 9.48701 14.2493C9.10199 14.284 8.62562 14.284 8.03552 14.2839H8.03551H8.03551H8.01189H7.98837H7.98837H7.98836C7.40158 14.284 6.92779 14.284 6.5447 14.2495C6.14941 14.214 5.80361 14.1389 5.4873 13.96C5.11913 13.7518 4.80982 13.4536 4.58831 13.0932C4.39799 12.7836 4.3103 12.4408 4.2604 12.0471C4.21205 11.6655 4.19478 11.192 4.17338 10.6056L4.17253 10.5821L4.03132 6.71237C4.02125 6.43641 4.2368 6.20453 4.51276 6.19446Z" fill="white"/>
</svg>
