<svg width="16" height="16" viewBox="0 0 16 16" fill="none" xmlns="http://www.w3.org/2000/svg">
<path fill-rule="evenodd" clip-rule="evenodd" d="M14.2407 5.13153L11.2752 1.71603L2.67112 9.18656L1.61764 13.0781L5.63542 12.6031L14.2407 5.13153ZM12.83 5.03205L11.7324 5.98505L10.0781 4.07975L11.1757 3.12674L12.83 5.03205ZM9.32302 4.73536L10.9773 6.64067L5.21227 11.6462L2.96949 11.9113L3.55677 9.74193L9.32302 4.73536Z" fill="#F4F3F7"/>
<path d="M8.1691 13.353C8.15219 13.3467 8.15214 13.3228 8.16903 13.3165L9.33499 12.8807C9.3402 12.8787 9.34433 12.8746 9.34633 12.8694L9.80327 11.682C9.80977 11.6651 9.83379 11.6654 9.83978 11.6825L10.2563 12.8689C10.2582 12.8744 10.2625 12.8787 10.268 12.8807L11.4736 13.3164C11.4908 13.3226 11.4907 13.3469 11.4735 13.3531L10.2681 13.7839C10.2626 13.7859 10.2582 13.7902 10.2563 13.7958L9.83979 14.987C9.83381 15.0041 9.80974 15.0044 9.80326 14.9875L9.34634 13.7952C9.34434 13.79 9.34018 13.7859 9.33492 13.7839L8.1691 13.353Z" fill="#F4F3F7"/>
<path d="M4.94747 2.19714C4.93055 2.19089 4.93051 2.16699 4.9474 2.16067L5.76388 1.85545C5.76909 1.8535 5.77322 1.84941 5.77522 1.84421L6.09528 1.01247C6.10178 0.995577 6.1258 0.995935 6.13179 1.01301L6.42341 1.84367C6.42535 1.84919 6.42966 1.85354 6.43516 1.85552L7.27925 2.1606C7.29641 2.1668 7.29637 2.19108 7.27919 2.19722L6.43522 2.49884C6.42969 2.50082 6.42535 2.50519 6.42341 2.51074L6.1318 3.34476C6.12582 3.36187 6.10175 3.36222 6.09527 3.3453L5.77523 2.5102C5.77323 2.50497 5.76906 2.50086 5.76381 2.49891L4.94747 2.19714Z" fill="#F4F3F7"/>
<path d="M13.1369 9.6748C13.4218 9.9597 13.8837 9.9597 14.1686 9.6748C14.4535 9.3899 14.4535 8.92798 14.1686 8.64308C13.8837 8.35818 13.4218 8.35818 13.1369 8.64308C12.852 8.92798 12.852 9.3899 13.1369 9.6748Z" fill="#F4F3F7"/>
</svg>
