<svg xmlns="http://www.w3.org/2000/svg" width="14" height="18" viewBox="0 0 14 18" fill="none">
    <g clip-path="url(#clip0_3640_50)">
        <path fill-rule="evenodd" clip-rule="evenodd" d="M7 6.66668C8.28866 6.66668 9.33333 5.62201 9.33333 4.33334C9.33333 3.04468 8.28866 2.00001 7 2.00001C5.71134 2.00001 4.66667 3.04468 4.66667 4.33334C4.66667 5.62201 5.71134 6.66668 7 6.66668ZM7 7.83334C8.933 7.83334 10.5 6.26634 10.5 4.33334C10.5 2.40035 8.933 0.833344 7 0.833344C5.067 0.833344 3.5 2.40035 3.5 4.33334C3.5 6.26634 5.067 7.83334 7 7.83334Z" fill="#F4F3F7"/>
        <path fill-rule="evenodd" clip-rule="evenodd" d="M1.16667 16H12.8333V11.8166L11.1834 10.1667H2.81658L1.16667 11.8166V16ZM0 11.3333L2.33333 9.00001H11.6667L14 11.3333V17.1667H0V11.3333Z" fill="#F4F3F7"/>
    </g>
    <defs>
        <clipPath id="clip0_3640_50">
            <rect width="14" height="16.3333" fill="white" transform="translate(0 0.833344)"/>
        </clipPath>
    </defs>
</svg>