<svg width="16" height="16" viewBox="0 0 16 16" fill="none" xmlns="http://www.w3.org/2000/svg">
<path fill-rule="evenodd" clip-rule="evenodd" d="M6.31366 3.87165C6.31366 3.38603 6.70979 2.99315 7.19607 2.9971C7.66947 3.00095 8.12834 3.00434 8.3128 3.00466C8.47261 3.00493 8.80264 3.00377 9.1592 3.00218C9.64323 3.00001 10.0365 3.39144 10.0365 3.87436C10.0365 4.90786 10.8743 5.74568 11.9078 5.74568H12.5429L12.553 5.74568C13.3747 5.74774 14.0418 6.41061 14.0492 7.23234L14.0492 7.24244L14.0635 9.47217C14.0696 10.4347 14.0729 11.1061 14.0079 11.6129C13.9447 12.1052 13.8251 12.3659 13.6404 12.5518C13.4557 12.7377 13.1958 12.8589 12.7038 12.9252C12.1975 12.9935 11.5261 12.9945 10.5635 12.9945H5.52662C4.56766 12.9945 3.89879 12.9935 3.39423 12.9256C2.90405 12.8596 2.64466 12.739 2.46009 12.554C2.27552 12.369 2.15548 12.1093 2.09065 11.619C2.02392 11.1143 2.02441 10.4454 2.02663 9.48643L2.03119 7.52402C2.03183 7.2487 2.03282 7.15197 2.04142 7.07626C2.12045 6.38066 2.67013 5.83223 3.3659 5.75479C3.44163 5.74636 3.53836 5.74558 3.81366 5.74557H3.81368H4.43973C5.47467 5.74557 6.31366 4.90658 6.31366 3.87165ZM3.81363 4.74557L3.81366 5.24557V4.74557H4.43973C4.92239 4.74557 5.31366 4.3543 5.31366 3.87165C5.31366 2.82988 6.16316 1.98867 7.20421 1.99713C7.67901 2.00099 8.13405 2.00435 8.31452 2.00466C8.47061 2.00493 8.79729 2.00378 9.15473 2.00219C10.1917 1.99755 11.0365 2.8363 11.0365 3.87436C11.0365 4.35558 11.4266 4.74568 11.9078 4.74568H12.5429L12.5555 4.74569C13.9251 4.74911 15.0369 5.8539 15.0491 7.22345L15.0492 7.23605L15.0635 9.46578L15.0637 9.50247C15.0696 10.4196 15.0743 11.1587 14.9997 11.7401C14.9223 12.3436 14.7517 12.8522 14.3498 13.2567C13.9479 13.6611 13.4404 13.835 12.8374 13.9163C12.2565 13.9946 11.5174 13.9946 10.6003 13.9945H10.5635H5.52662H5.49001C4.57632 13.9946 3.83991 13.9946 3.26086 13.9166C2.65971 13.8358 2.15366 13.6627 1.75216 13.2603C1.35067 12.8578 1.17878 12.3514 1.09928 11.75C1.0227 11.1708 1.02442 10.4344 1.02655 9.52074L1.02664 9.48411L1.03119 7.5217L1.03126 7.48907C1.03176 7.2586 1.03211 7.10165 1.04782 6.96338C1.17952 5.80405 2.09565 4.89 3.25527 4.76093C3.39358 4.74553 3.55054 4.74555 3.78101 4.74557L3.81363 4.74557ZM6.29653 8.9852C6.29653 8.01864 7.07997 7.2352 8.04626 7.2352C9.01256 7.2352 9.79599 8.01864 9.79599 8.9852C9.79599 9.95175 9.01256 10.7352 8.04626 10.7352C7.07997 10.7352 6.29653 9.95175 6.29653 8.9852ZM8.04626 6.2352C6.52757 6.2352 5.29653 7.46647 5.29653 8.9852C5.29653 10.5039 6.52757 11.7352 8.04626 11.7352C9.56495 11.7352 10.796 10.5039 10.796 8.9852C10.796 7.46647 9.56495 6.2352 8.04626 6.2352Z" fill="white" fill-opacity="0.9"/>
</svg>
