<svg width="16" height="17" viewBox="0 0 16 17" fill="none" xmlns="http://www.w3.org/2000/svg">
<g clip-path="url(#clip0_216_75059)">
<path d="M0 8.04791C0 4.27668 0 2.39106 1.17157 1.21949C2.34315 0.0479126 4.22876 0.0479126 8 0.0479126C11.7712 0.0479126 13.6569 0.0479126 14.8284 1.21949C16 2.39106 16 4.27668 16 8.04791C16 11.8191 16 13.7048 14.8284 14.8763C13.6569 16.0479 11.7712 16.0479 8 16.0479C4.22876 16.0479 2.34315 16.0479 1.17157 14.8763C0 13.7048 0 11.8191 0 8.04791Z" fill="#E7EDF1"/>
<path d="M5.82089 1.74694C4.19578 2.30346 2.81189 3.51877 2.04448 5.05501C1.77715 5.58472 1.58177 6.1497 1.46468 6.73091C1.16985 8.17898 1.37511 9.72298 2.04307 11.0413C2.47685 11.9018 3.09967 12.6671 3.85439 13.2673C4.56679 13.8351 5.39698 14.2548 6.27654 14.489C7.38676 14.7866 8.56891 14.7803 9.68688 14.5257C10.6969 14.2929 11.6534 13.8104 12.4166 13.1058C13.2235 12.3645 13.799 11.3876 14.103 10.338C14.4353 9.19326 14.4811 7.9709 14.273 6.79862C12.1817 6.79791 10.091 6.79791 7.9997 6.79862C7.9997 7.66619 7.99899 8.53306 8.0004 9.40063C9.21148 9.40063 10.4226 9.39993 11.6336 9.40063C11.4933 10.2315 10.9995 10.9919 10.2991 11.4595C9.85899 11.7558 9.35255 11.9476 8.8313 12.0393C8.30652 12.1289 7.76411 12.1402 7.24004 12.0344C6.70751 11.9279 6.19896 11.7064 5.756 11.3932C5.04713 10.8953 4.50613 10.1666 4.22822 9.34632C3.94397 8.5119 3.94185 7.58367 4.22963 6.74995C4.42925 6.1624 4.76076 5.61999 5.19737 5.17844C5.73484 4.62827 6.43384 4.23399 7.18785 4.07317C7.83324 3.93563 8.51319 3.96172 9.14518 4.15287C9.68195 4.31581 10.1771 4.60993 10.5827 4.99717C10.9925 4.58948 11.4002 4.17967 11.8093 3.77128C12.0237 3.55121 12.2494 3.34173 12.4568 3.11531C11.8354 2.54045 11.1074 2.07845 10.3111 1.78574C8.87856 1.25884 7.26332 1.24756 5.82089 1.74694Z" fill="white"/>
<path d="M5.82088 1.74692C7.26331 1.24754 8.87855 1.25882 10.3118 1.78642C11.1074 2.07843 11.8361 2.54043 12.4575 3.11599C12.2494 3.3417 12.0244 3.5519 11.81 3.77196C11.4009 4.18036 10.9932 4.59016 10.5834 4.99785C10.1778 4.61062 9.68264 4.31649 9.14587 4.15356C8.51389 3.96241 7.83393 3.93631 7.18854 4.07385C6.43524 4.23538 5.73553 4.62896 5.19736 5.17983C4.76145 5.62138 4.42924 6.16379 4.22962 6.75134C3.501 6.18565 2.77238 5.61997 2.04376 5.05499C2.81118 3.51875 4.19506 2.30344 5.82088 1.74692Z" fill="#E43729"/>
<path d="M1.46468 6.73089C1.58177 6.14969 1.77715 5.58471 2.04377 5.05499C2.77239 5.61997 3.50031 6.18495 4.22893 6.74993C3.94115 7.58365 3.94326 8.51188 4.22752 9.3463C3.4996 9.91128 2.77169 10.477 2.04307 11.0412C1.37511 9.72296 1.16985 8.17896 1.46468 6.73089Z" fill="#FABE00"/>
<path d="M7.99968 6.79862C10.091 6.79862 12.1817 6.79792 14.273 6.79862C14.4811 7.9709 14.4352 9.19256 14.103 10.338C13.7983 11.3876 13.2227 12.3645 12.4165 13.1058C11.7112 12.5563 11.0037 12.0097 10.2984 11.4595C10.9988 10.9919 11.4925 10.2315 11.6329 9.40064C10.4218 9.39993 9.21076 9.40064 7.99968 9.40064C7.99898 8.53377 8.00039 7.6662 7.99968 6.79862Z" fill="#597DBE"/>
<path d="M2.04297 11.0413C2.77159 10.477 3.4995 9.91129 4.22742 9.34631C4.50533 10.1666 5.04632 10.8953 5.7552 11.3932C6.19886 11.7057 6.70671 11.9279 7.23924 12.0344C7.76261 12.1402 8.30502 12.1289 8.8305 12.0393C9.35175 11.9476 9.85818 11.7558 10.2983 11.4595C11.0037 12.0097 11.7111 12.5563 12.4165 13.1058C11.6533 13.8104 10.6975 14.2929 9.68679 14.5257C8.56881 14.7803 7.38666 14.7866 6.27645 14.489C5.39618 14.2548 4.56599 13.8351 3.85429 13.2673C3.09957 12.6678 2.47746 11.9025 2.04297 11.0413Z" fill="#33A044"/>
</g>
<defs>
<clipPath id="clip0_216_75059">
<path d="M0 8.04791C0 4.27668 0 2.39106 1.17157 1.21949C2.34315 0.0479126 4.22876 0.0479126 8 0.0479126C11.7712 0.0479126 13.6569 0.0479126 14.8284 1.21949C16 2.39106 16 4.27668 16 8.04791C16 11.8191 16 13.7048 14.8284 14.8763C13.6569 16.0479 11.7712 16.0479 8 16.0479C4.22876 16.0479 2.34315 16.0479 1.17157 14.8763C0 13.7048 0 11.8191 0 8.04791Z" fill="white"/>
</clipPath>
</defs>
</svg>
