<svg width="16" height="16" viewBox="0 0 16 16" fill="none" xmlns="http://www.w3.org/2000/svg">
<path fill-rule="evenodd" clip-rule="evenodd" d="M2.58337 5.91668C1.43277 5.91668 0.5 6.84941 0.5 8.00001C0.5 9.15062 1.43277 10.0834 2.58337 10.0834C3.1812 10.0834 3.72076 9.83101 4.10016 9.42822C4.22343 9.29734 4.33485 9.25006 4.41337 9.25006C4.55315 9.25006 4.66646 9.36337 4.66646 9.50314V12.1667C4.66646 12.857 5.22611 13.4167 5.91647 13.4167H14.25C14.9404 13.4167 15.5 12.857 15.5 12.1667V3.83336C15.5 3.14299 14.9404 2.58334 14.25 2.58334L11.2822 2.58334C10.8504 2.58334 10.5003 2.93339 10.5003 3.36519C10.5003 3.94893 10.8498 4.43141 11.092 4.76128C11.2438 4.96818 11.3334 5.22298 11.3334 5.49991C11.3334 6.19025 10.7737 6.7499 10.0834 6.7499C9.39298 6.7499 8.83333 6.19025 8.83333 5.49991C8.83333 5.22282 8.923 4.96788 9.07503 4.76092C9.31733 4.43108 9.66698 3.9486 9.66698 3.36476C9.66698 2.9332 9.31712 2.58334 8.88556 2.58334L5.91647 2.58334C5.22611 2.58334 4.66646 3.14299 4.66646 3.83336V6.497C4.66646 6.63676 4.55317 6.75005 4.41341 6.75005C4.3349 6.75005 4.22349 6.70276 4.10023 6.57189C3.72083 6.16905 3.18124 5.91668 2.58337 5.91668ZM1.33334 8.00001C1.33334 7.30967 1.89299 6.75002 2.58337 6.75002C2.94215 6.75002 3.26508 6.90062 3.49358 7.14324C3.69815 7.36044 4.01379 7.58339 4.41341 7.58339C5.01341 7.58339 5.4998 7.097 5.4998 6.497V3.83336C5.4998 3.60324 5.68635 3.41669 5.91647 3.41669L8.83163 3.41669C8.8121 3.67144 8.65084 3.93075 8.40342 4.26757C8.14988 4.61272 7.99999 5.03942 7.99999 5.49991C7.99999 6.65051 8.93275 7.58325 10.0834 7.58325C11.234 7.58325 12.1667 6.65051 12.1667 5.49991C12.1667 5.03969 12.017 4.61322 11.7637 4.26818C11.5163 3.93106 11.355 3.67162 11.3356 3.41669L14.25 3.41669C14.4801 3.41669 14.6667 3.60324 14.6667 3.83336V12.1667C14.6667 12.3968 14.4801 12.5833 14.25 12.5833H5.91647C5.68635 12.5833 5.4998 12.3968 5.4998 12.1667V9.50314C5.4998 8.90312 5.01339 8.41671 4.41337 8.41671C4.01375 8.41671 3.69811 8.63965 3.49354 8.85684C3.26504 9.09943 2.94213 9.25001 2.58337 9.25001C1.89299 9.25001 1.33334 8.69036 1.33334 8.00001Z" fill="white"/>
</svg>
