<svg viewBox="0 0 600 790" fill="none" xmlns="http://www.w3.org/2000/svg">
    <path d="M349.45 -167.146H334.348C301.749 -167.146 281.349 -125.236 297.594 -91.6428L480.304 286.166C496.505 319.666 537.093 319.919 553.588 286.623L634.678 122.938C642.486 107.177 642.495 87.6229 634.702 71.8505L601.273 4.19145C548.827 -101.954 453.011 -167.146 349.45 -167.146Z" fill="black"/>
    <path d="M356.494 181.853L282.223 30.4357C267.043 -0.513377 229.304 -0.528322 214.106 30.4087L-104.116 678.172C-111.261 692.717 -111.239 710.69 -104.06 725.211L-29.9115 875.177C-14.6809 905.981 22.9265 905.944 38.1139 875.11L356.458 228.798C363.6 214.297 363.614 196.37 356.494 181.853Z" fill="black"/>
</svg>
