<svg width="16" height="16" viewBox="0 0 16 16" fill="none" xmlns="http://www.w3.org/2000/svg">
<path fill-rule="evenodd" clip-rule="evenodd" d="M1.51184 14V2H13.5118V14H1.51184ZM7.5 3H12.5118V13H7.5V3ZM6.5 3H2.51184V13H6.5V3Z" fill="#F4F3F7"/>
<path fill-rule="evenodd" clip-rule="evenodd" d="M5.55897 4.90422C5.55897 4.95945 5.5142 5.00422 5.45897 5.00422L3.65897 5.00422C3.60374 5.00422 3.55897 4.95945 3.55897 4.90422V4.10422C3.55897 4.04899 3.60375 4.00422 3.65897 4.00422L5.45897 4.00422C5.5142 4.00422 5.55897 4.04899 5.55897 4.10422V4.90422Z" fill="#F4F3F7"/>
<path fill-rule="evenodd" clip-rule="evenodd" d="M5.55896 6.9162C5.55896 6.97143 5.51419 7.0162 5.45896 7.0162H3.65896C3.60373 7.0162 3.55896 6.97143 3.55896 6.9162V6.1162C3.55896 6.06098 3.60373 6.0162 3.65896 6.0162H5.45896C5.51419 6.0162 5.55896 6.06098 5.55896 6.1162V6.9162Z" fill="#F4F3F7"/>
</svg>
