<svg width="16" height="16" viewBox="0 0 16 16" fill="none" xmlns="http://www.w3.org/2000/svg">
<path fill-rule="evenodd" clip-rule="evenodd" d="M7.99998 3C7.72422 3 7.50067 3.22355 7.50067 3.4993V7.49999H3.5C3.22386 7.49999 3 7.72385 3 7.99999C3 8.27613 3.22386 8.49999 3.5 8.49999H7.50067V12.5007C7.50067 12.7765 7.72422 13 7.99998 13C8.27573 13 8.49928 12.7765 8.49928 12.5007V8.49999H12.5C12.7761 8.49999 13 8.27613 13 7.99999C13 7.72385 12.7761 7.49999 12.5 7.49999H8.49928V3.49931C8.49928 3.22355 8.27573 3 7.99998 3Z" fill="white"/>
</svg>
