<svg width="16" height="16" viewBox="0 0 16 16" fill="none" xmlns="http://www.w3.org/2000/svg">
<path fill-rule="evenodd" clip-rule="evenodd" d="M9.71429 2L5.18912 4.96514H2V11.0349H5.18912L9.71429 14V2ZM8.85714 3.59476V12.4052L5.44246 10.1678H2.85714V5.83224H5.44246L8.85714 3.59476Z" fill="#F4F3F7"/>
<path fill-rule="evenodd" clip-rule="evenodd" d="M13.1429 8C13.1429 6.15222 12.2643 4.51213 10.905 3.48356L11.4184 2.7892C12.9848 3.97443 14 5.86733 14 8C14 10.1327 12.9848 12.0256 11.4184 13.2108L10.905 12.5164C12.2643 11.4879 13.1429 9.84778 13.1429 8Z" fill="#F4F3F7"/>
<path fill-rule="evenodd" clip-rule="evenodd" d="M11.4286 8C11.4286 7.01902 11.1167 6.18395 10.6797 5.68677L11.3203 5.11061C11.924 5.79748 12.2857 6.85204 12.2857 8C12.2857 9.14796 11.924 10.2025 11.3203 10.8894L10.6797 10.3132C11.1167 9.81604 11.4286 8.98098 11.4286 8Z" fill="#F4F3F7"/>
</svg>
