<svg width="16" height="12" viewBox="0 0 16 12" fill="none" xmlns="http://www.w3.org/2000/svg">
<path d="M3.88018 7.14251L4.18348 7.4282L3.88018 7.14251ZM5.16646 7.50313L4.74979 7.50313L5.16646 7.50313ZM5.16646 10.1667L5.58313 10.1667L5.16646 10.1667ZM14.3333 1L14.3333 0.58333L14.3333 1ZM11.5112 2.51472L11.8471 2.26816L11.8471 2.26816L11.5112 2.51472ZM8.82256 2.51423L9.15836 2.76091L9.15836 2.76091L8.82256 2.51423ZM3.88024 4.85755L3.57691 5.14323L3.57691 5.14323L3.88024 4.85755ZM4.4967 7.25004C4.41818 7.25004 4.30675 7.29733 4.18348 7.4282L3.57687 6.85682C3.78144 6.63964 4.09708 6.4167 4.4967 6.4167L4.4967 7.25004ZM4.74979 7.50313C4.74979 7.36335 4.63648 7.25004 4.4967 7.25004L4.4967 6.4167C5.09672 6.4167 5.58313 6.90311 5.58313 7.50313L4.74979 7.50313ZM4.74979 10.1667L4.74979 7.50313L5.58313 7.50313L5.58313 10.1667L4.74979 10.1667ZM5.9998 11.4167C5.30944 11.4167 4.74979 10.857 4.74979 10.1667L5.58313 10.1667C5.58313 10.3968 5.76968 10.5833 5.9998 10.5833L5.9998 11.4167ZM14.3333 11.4167L5.9998 11.4167L5.9998 10.5833L14.3333 10.5833L14.3333 11.4167ZM15.5833 10.1667C15.5833 10.857 15.0237 11.4167 14.3333 11.4167L14.3333 10.5833C14.5634 10.5833 14.75 10.3968 14.75 10.1667L15.5833 10.1667ZM15.5833 1.83334L15.5833 10.1667L14.75 10.1667L14.75 1.83334L15.5833 1.83334ZM14.3333 0.58333C15.0237 0.58333 15.5833 1.14298 15.5833 1.83334L14.75 1.83334C14.75 1.60322 14.5634 1.41667 14.3333 1.41667L14.3333 0.58333ZM11.3655 0.583329L14.3333 0.58333L14.3333 1.41667L11.3655 1.41667L11.3655 0.583329ZM11.417 1.36517C11.417 1.63699 11.583 1.90833 11.8471 2.26816L11.1753 2.76127C10.9332 2.4314 10.5837 1.94892 10.5837 1.36517L11.417 1.36517ZM11.8471 2.26816C12.1003 2.61321 12.2501 3.03967 12.2501 3.49989L11.4167 3.49989C11.4167 3.22296 11.3272 2.96817 11.1753 2.76127L11.8471 2.26816ZM12.2501 3.49989C12.2501 4.6505 11.3173 5.58323 10.1667 5.58323L10.1667 4.74989C10.8571 4.74989 11.4167 4.19024 11.4167 3.49989L12.2501 3.49989ZM10.1667 5.58323C9.01608 5.58323 8.08332 4.6505 8.08332 3.49989L8.91666 3.49989C8.91666 4.19024 9.47631 4.74989 10.1667 4.74989L10.1667 5.58323ZM8.08332 3.49989C8.08332 3.0394 8.23321 2.61271 8.48675 2.26756L9.15836 2.76091C9.00633 2.96787 8.91666 3.2228 8.91666 3.49989L8.08332 3.49989ZM8.48675 2.26756C8.75099 1.90784 8.91696 1.63652 8.91696 1.36475L9.75031 1.36475C9.75031 1.94859 9.40066 2.43106 9.15836 2.76091L8.48675 2.26756ZM5.9998 0.583329L8.96889 0.583329L8.96889 1.41667L5.9998 1.41667L5.9998 0.583329ZM4.74979 1.83334C4.74979 1.14298 5.30944 0.583329 5.9998 0.583329L5.9998 1.41667C5.76968 1.41667 5.58313 1.60322 5.58313 1.83334L4.74979 1.83334ZM4.74979 4.49699L4.74979 1.83334L5.58313 1.83334L5.58313 4.49699L4.74979 4.49699ZM4.49674 4.75003C4.6365 4.75003 4.74979 4.63674 4.74979 4.49699L5.58313 4.49699C5.58313 5.09698 5.09674 5.58338 4.49674 5.58338L4.49674 4.75003ZM4.18356 4.57188C4.30682 4.70275 4.41823 4.75003 4.49674 4.75003L4.49674 5.58338C4.09711 5.58338 3.78147 5.36043 3.57691 5.14323L4.18356 4.57188ZM2.6667 3.91666C3.26457 3.91666 3.80416 4.16904 4.18356 4.57188L3.57691 5.14323C3.34841 4.90061 3.02548 4.75 2.6667 4.75L2.6667 3.91666ZM0.583329 6C0.583329 4.8494 1.51609 3.91666 2.6667 3.91666L2.6667 4.75C1.97632 4.75 1.41667 5.30965 1.41667 6L0.583329 6ZM2.6667 8.08334C1.51609 8.08334 0.583329 7.1506 0.583329 6L1.41667 6C1.41667 6.69035 1.97632 7.25 2.6667 7.25L2.6667 8.08334ZM4.18348 7.4282C3.80409 7.831 3.26453 8.08334 2.6667 8.08334L2.6667 7.25C3.02546 7.25 3.34837 7.09941 3.57687 6.85682L4.18348 7.4282ZM8.91696 1.36475C8.91696 1.39343 8.94021 1.41667 8.96889 1.41667L8.96889 0.583329C9.40045 0.583329 9.75031 0.933183 9.75031 1.36475L8.91696 1.36475ZM11.3655 1.41667C11.394 1.41667 11.417 1.39362 11.417 1.36517L10.5837 1.36517C10.5837 0.933373 10.9337 0.583329 11.3655 0.583329L11.3655 1.41667Z" fill="#2A343D"/>
</svg>
