<svg width="32" height="32" viewBox="0 0 32 32" fill="none" xmlns="http://www.w3.org/2000/svg">
<g clip-path="url(#clip0_349_17469)">
<path fill-rule="evenodd" clip-rule="evenodd" d="M14.1534 14.0735L14.5 15.9797H17.5L18.7342 17.831L13.6819 23.3283C13.5633 23.4574 13.4244 23.5657 13.2709 23.6487L9.32058 25.7849C7.97085 26.5148 6.49316 25.0575 7.16938 23.6634L9.11114 19.6602C9.17936 19.5195 9.26754 19.3898 9.37284 19.2753L14.1534 14.0735Z" fill="#707585"/>
<path fill-rule="evenodd" clip-rule="evenodd" d="M15.7507 13.9467L16.5842 15.2156L19.3458 14.0436L21.4928 15.4546L23.6029 9.52474C23.897 8.69817 23.4702 7.77882 22.6495 7.47132L20.0813 6.509C19.2607 6.20151 18.357 6.6223 18.0629 7.44886L15.7507 13.9467Z" fill="#707585"/>
<circle cx="21.9116" cy="19.9116" r="0.911621" fill="#707585"/>
<circle cx="8.91162" cy="12.9116" r="0.911621" fill="#707585"/>
<circle cx="12.5" cy="8.5" r="1.5" fill="#707585"/>
</g>
<defs>
<clipPath id="clip0_349_17469">
<rect width="20" height="20" fill="white" transform="translate(7 6)"/>
</clipPath>
</defs>
</svg>
