<svg xmlns="http://www.w3.org/2000/svg" width="16" height="16" viewBox="0 0 8 10" fill="none">
    <path fill-rule="evenodd" clip-rule="evenodd" d="M1.49879 0.5C0.671042 0.5 1.52588e-05 1.17103 1.52588e-05 1.99878V8.00122C1.52588e-05 8.82897 0.671042 9.5 1.49879 9.5C2.32655 9.5 2.99757 8.82897 2.99757 8.00122V1.99878C2.99757 1.17103 2.32655 0.5 1.49879 0.5ZM1.00002 1.99878C1.00002 1.72331 1.22333 1.5 1.49879 1.5C1.77426 1.5 1.99757 1.72331 1.99757 1.99878V8.00122C1.99757 8.27669 1.77426 8.5 1.49879 8.5C1.22333 8.5 1.00002 8.27669 1.00002 8.00122V1.99878ZM6.50575 0.5C5.678 0.5 5.00697 1.17103 5.00697 1.99878V8.00122C5.00697 8.82897 5.678 9.5 6.50575 9.5C7.33351 9.5 8.00453 8.82897 8.00453 8.00122V1.99878C8.00453 1.17103 7.33351 0.5 6.50575 0.5ZM6.00697 1.99878C6.00697 1.72331 6.23028 1.5 6.50575 1.5C6.78122 1.5 7.00453 1.72331 7.00453 1.99878V8.00122C7.00453 8.27669 6.78122 8.5 6.50575 8.5C6.23028 8.5 6.00697 8.27669 6.00697 8.00122V1.99878Z" fill="white"/>
</svg>
