<svg width="16" height="16" viewBox="0 0 16 16" fill="none" xmlns="http://www.w3.org/2000/svg">
    <path fill-rule="evenodd" clip-rule="evenodd"
          d="M10.7719 3.03533C10.9605 2.83357 11.2769 2.82286 11.4786 3.0114L12.7415 4.19151C12.9432 4.38006 12.954 4.69646 12.7654 4.89822L12.2347 5.46615L10.2412 3.60324L10.7719 3.03533ZM9.55844 4.33387L4.47456 9.77404C4.44112 9.80983 4.41311 9.85033 4.39145 9.89426L3.15808 12.3949C2.94332 12.8303 3.41262 13.2855 3.84128 13.0575L6.35045 11.7231C6.39918 11.6972 6.44329 11.6634 6.48099 11.6231L11.5519 6.19678L9.55844 4.33387ZM12.1614 2.28076C11.5561 1.71514 10.6069 1.74728 10.0413 2.35255L3.74393 9.09126C3.6436 9.19862 3.5596 9.32014 3.4946 9.45192L2.26123 11.9526C1.61695 13.2589 3.02484 14.6244 4.31082 13.9405L6.81999 12.606C6.96621 12.5283 7.09854 12.4268 7.21161 12.3058L13.496 5.581C14.0617 4.97572 14.0295 4.02651 13.4243 3.46088L12.1614 2.28076Z"
          fill="#2A343D"/>
    <path d="M2.5 6.1986L2.46591 6.08061C2.38966 5.81668 2.18332 5.61034 1.91939 5.53409L1.8014 5.5L1.91939 5.46591C2.18332 5.38966 2.38966 5.18332 2.46591 4.91939L1.98556 4.78061L2.46591 4.91939L2.5 4.8014L2.53409 4.91939C2.61034 5.18332 2.81668 5.38966 3.08061 5.46591L3.1986 5.5L3.08061 5.53409C2.81668 5.61034 2.61034 5.81668 2.53409 6.08061L2.5 6.1986ZM3.86365 5.69214C3.86357 5.69212 3.86349 5.6921 3.86341 5.69207L3.86365 5.69214L3.91916 5.5L3.86365 5.69214Z"
          stroke="#2A343D"/>
    <path d="M13.2867 11C13.1681 11.0693 13.0693 11.1681 13 11.2867C12.9307 11.1681 12.8319 11.0693 12.7133 11C12.8319 10.9307 12.9307 10.8319 13 10.7133C13.0693 10.8319 13.1681 10.9307 13.2867 11Z"
          stroke="#2A343D"/>
    <circle cx="6.75" cy="2.25" r="0.75" transform="rotate(-180 6.75 2.25)" fill="#2A343D"/>
</svg>
