<svg width="16" height="16" viewBox="0 0 16 16" fill="none" xmlns="http://www.w3.org/2000/svg">
<path fill-rule="evenodd" clip-rule="evenodd" d="M13.8686 10.6589C12.9979 12.9425 10.7874 14.5647 8.19801 14.5647C4.84749 14.5647 2.13135 11.8486 2.13135 8.49803C2.13135 5.14751 4.84749 2.43137 8.19801 2.43137C10.2596 2.43137 12.081 3.45968 13.1773 5.03137H11.8779C10.956 4.0531 9.64835 3.44241 8.19805 3.44241C5.40595 3.44241 3.1425 5.70586 3.1425 8.49797C3.1425 11.2901 5.40595 13.5535 8.19805 13.5535C10.3589 13.5535 12.2032 12.1978 12.9266 10.2905L13.8686 10.6589Z" fill="#F4F3F7"/>
<path fill-rule="evenodd" clip-rule="evenodd" d="M12.2686 4.76283L9.1999 5.58508L9.45872 6.55101L13.4933 5.46993L12.4123 1.4353L11.4463 1.69412L12.2686 4.76283Z" fill="#F4F3F7"/>
</svg>
