<svg width="14" height="12" viewBox="0 0 14 12" fill="none" xmlns="http://www.w3.org/2000/svg">
<path fill-rule="evenodd" clip-rule="evenodd" d="M8.3122 0.828288L13.5162 9.52517C14.1589 10.5786 13.4006 11.9293 12.1667 11.9293H1.8333C0.603848 11.9293 -0.155042 10.5875 0.478491 9.53383L5.60783 0.836951C6.21983 -0.180889 7.69369 -0.18561 8.3122 0.828288ZM7.46872 1.34283C7.23678 0.962622 6.68408 0.964393 6.45458 1.34608L1.32525 10.043C1.08767 10.4381 1.37225 10.9413 1.8333 10.9413H12.1667C12.6294 10.9413 12.9137 10.4348 12.6728 10.0397L7.46872 1.34283Z" fill="#F4F3F7"/>
<path d="M6.37689 8.77588H7.62304V10.022H6.37689V8.77588Z" fill="#F4F3F7"/>
<path d="M6.48071 2.89155H7.51917V7.81859H6.48071V2.89155Z" fill="#F4F3F7"/>
</svg>
