<svg width="17" height="16" viewBox="0 0 17 16" fill="none" xmlns="http://www.w3.org/2000/svg">
<path d="M6.98777 13.2467L7.42078 12.9967L6.98777 13.2467ZM7.85379 13.2467L8.28681 13.4967L7.85379 13.2467ZM3.49365 4.53711C3.49365 3.70868 4.16523 3.03711 4.99365 3.03711V2.03711C3.61294 2.03711 2.49365 3.1564 2.49365 4.53711H3.49365ZM3.49365 9.49646V4.53711H2.49365V9.49646H3.49365ZM4.99365 10.9965C4.16523 10.9965 3.49365 10.3249 3.49365 9.49646H2.49365C2.49365 10.8772 3.61294 11.9965 4.99365 11.9965V10.9965ZM5.92189 10.9965H4.99365V11.9965H5.92189V10.9965ZM7.42078 12.9967L6.44079 11.2993L5.57477 11.7993L6.55475 13.4967L7.42078 12.9967ZM7.42078 12.9967L6.55475 13.4967C6.93966 14.1634 7.90191 14.1634 8.28681 13.4967L7.42078 12.9967ZM8.40077 11.2993L7.42078 12.9967L8.28681 13.4967L9.26679 11.7993L8.40077 11.2993ZM12.0084 10.9965H8.91967V11.9965H12.0084V10.9965ZM13.5084 9.49646C13.5084 10.3249 12.8368 10.9965 12.0084 10.9965V11.9965C13.3891 11.9965 14.5084 10.8772 14.5084 9.49646H13.5084ZM13.5084 4.53711V9.49646H14.5084V4.53711H13.5084ZM12.0084 3.03711C12.8368 3.03711 13.5084 3.70868 13.5084 4.53711H14.5084C14.5084 3.1564 13.3891 2.03711 12.0084 2.03711V3.03711ZM4.99365 3.03711H12.0084V2.03711H4.99365V3.03711ZM9.26679 11.7993C9.21163 11.8949 9.09249 11.9965 8.91967 11.9965V10.9965C8.67493 10.9965 8.49189 11.1415 8.40077 11.2993L9.26679 11.7993ZM5.92189 11.9965C5.74908 11.9965 5.62993 11.8949 5.57477 11.7993L6.44079 11.2993C6.34967 11.1415 6.16663 10.9965 5.92189 10.9965V11.9965Z" fill="white"/>
</svg>
