<svg width="16" height="16" viewBox="0 0 16 16" fill="none" xmlns="http://www.w3.org/2000/svg">
<g id="Icons Aria GX">
<path id="Vector 513 (Stroke)" fill-rule="evenodd" clip-rule="evenodd" d="M6.18305 2C6.37707 2 6.55357 2.11224 6.63585 2.28795L9.95293 9.37129C10.07 9.62137 9.96225 9.91903 9.71217 10.0361C9.46209 10.1533 9.16442 10.0455 9.04731 9.79538L8.72687 9.11111H3.63922L1.95293 12.712C1.83582 12.9621 1.53815 13.0699 1.28807 12.9528C1.03799 12.8357 0.930199 12.538 1.04731 12.288L5.73024 2.28795C5.81252 2.11224 5.98902 2 6.18305 2ZM4.10751 8.11111H8.25858L6.18305 3.67898L4.10751 8.11111Z" fill="#F4F3F7"/>
<path id="Vector 512 (Stroke)" fill-rule="evenodd" clip-rule="evenodd" d="M13.8111 9.10826C14.0273 9.28002 14.0634 9.59454 13.8916 9.81077L10.7141 13.811C10.6255 13.9226 10.4934 13.991 10.3511 13.9992C10.2088 14.0073 10.0698 13.9543 9.96905 13.8535L8.11032 11.9948C7.91505 11.7996 7.91505 11.483 8.11031 11.2877C8.30557 11.0925 8.62215 11.0925 8.81742 11.2877L10.2798 12.75L13.1086 9.18878C13.2804 8.97255 13.5949 8.9365 13.8111 9.10826Z" fill="#F4F3F7"/>
</g>
</svg>
