<svg width="16" height="16" viewBox="0 0 16 16" fill="none" xmlns="http://www.w3.org/2000/svg">
<path d="M1.25 7.5L4.25 4.5L6.10599 2.70362C7.47896 1.37475 9.5263 1.0237 11.2635 1.81929L11.4147 1.88849C12.2788 2.28423 12.9817 2.96348 13.4067 3.81357V3.81357C14.2089 5.41788 13.8945 7.3555 12.6262 8.62382L10.75 10.5L7.08179 14.1682C6.2598 14.9902 5.05677 15.3019 3.93903 14.9826L3.86989 14.9628C2.86093 14.6746 2.06911 13.8909 1.77038 12.885V12.885C1.44973 11.8053 1.74608 10.6367 2.5425 9.84027L7.67499 4.70781C8.11407 4.26872 8.75135 4.09221 9.35377 4.24282V4.24282C9.98712 4.40115 10.4817 4.89567 10.64 5.52902V5.52902C10.7906 6.13145 10.6141 6.76874 10.175 7.20784L8.38281 9.00007L5.38281 12.0001" stroke="white" stroke-linecap="round" stroke-linejoin="round"/>
</svg>
