<svg width="17" height="16" viewBox="0 0 17 16" fill="none" xmlns="http://www.w3.org/2000/svg">
<path fill-rule="evenodd" clip-rule="evenodd" d="M11.4698 0.321486C11.4698 1.14066 11.108 1.95984 10.5974 2.5509C10.0546 3.20422 9.11841 3.69157 8.37358 3.69167C8.28849 3.69167 8.20329 3.68122 8.15013 3.67088C8.13952 3.62942 8.1182 3.50492 8.1182 3.38052C8.1182 2.5509 8.55448 1.73173 9.0226 1.21325C9.61846 0.539257 10.608 0.0311245 11.4379 0C11.4592 0.0933735 11.4698 0.20743 11.4698 0.321486ZM14.3966 5.48158C14.4173 5.46835 14.4314 5.45928 14.4381 5.45426C13.3315 3.90928 11.6504 3.86772 11.1821 3.86762C10.4668 3.86762 9.82642 4.11499 9.28808 4.32296C8.89769 4.47377 8.56095 4.60386 8.28813 4.60386C7.98715 4.60386 7.64254 4.46813 7.25795 4.31665C6.77242 4.12541 6.22317 3.90908 5.61757 3.90908C3.5748 3.90908 1.5 5.55788 1.5 8.66872C1.5 10.6078 2.26605 12.6505 3.213 13.9675C4.03221 15.0874 4.7451 15.9999 5.76654 15.9999C6.25093 15.9999 6.60612 15.853 6.97961 15.6985C7.39369 15.5272 7.83026 15.3466 8.49036 15.3466C9.1569 15.3466 9.55536 15.5162 9.9397 15.6797C10.2977 15.832 10.6435 15.9792 11.1823 15.9792C12.2994 15.9792 13.0336 14.9941 13.7358 14.009C14.5232 12.8891 14.853 11.7899 14.8636 11.7381C14.7998 11.7174 12.6612 10.8775 12.6612 8.50286C12.6612 6.59159 14.118 5.65977 14.3966 5.48158Z" fill="black"/>
</svg>
