<svg width="16" height="16" viewBox="0 0 16 16" fill="none" xmlns="http://www.w3.org/2000/svg">
<path d="M9.66379 9.13101C8.94506 9.508 8.52613 9.54318 8.01386 11.1121C7.72136 12.0079 7.75505 13.3286 7.38792 13.7089C6.78055 14.3381 5.48616 13.9743 5.48616 12.3536C5.48616 11.057 6.07385 9.92737 6.30081 9.58832C5.29208 9.66366 3.43732 9.58832 2.74727 9.58832C1.80578 9.58832 0.84982 8.91329 1.90899 5.59644C2.56337 3.54723 3.41632 2.50042 6.60225 2.55849C9.78819 2.61657 8.60593 2.62808 9.67505 2.62808" stroke="white" stroke-opacity="0.9" stroke-linecap="round" stroke-linejoin="round"/>
<rect x="14.2778" y="9.93481" width="2.66918" height="7.43479" rx="1" transform="rotate(-180 14.2778 9.93481)" stroke="white" stroke-opacity="0.9" stroke-linejoin="round"/>
</svg>
