<svg width="32" height="32" viewBox="0 0 32 32" fill="none" xmlns="http://www.w3.org/2000/svg">
<g id="Chat Icon Aria Zen">
<path d="M0 16C0 7.16344 7.16344 0 16 0C24.8366 0 32 7.16344 32 16C32 24.8366 24.8366 32 16 32C7.16344 32 0 24.8366 0 16Z" fill="black"/>
<g id="Vector 507">
<path d="M18.452 10.721L16.808 7.89085C16.472 7.31237 15.6366 7.31209 15.3001 7.89034L8.25597 19.9978C8.09781 20.2697 8.09828 20.6056 8.2572 20.8771L9.89856 23.6801C10.2357 24.2559 11.0682 24.2552 11.4044 23.6788L18.4513 11.5985C18.6094 11.3274 18.6097 10.9924 18.452 10.721Z" fill="white" fill-opacity="0.9"/>
<path d="M17.8724 15.8231H17.5617C16.8911 15.8231 16.4714 16.5484 16.8056 17.1298L20.5642 23.6683C20.8974 24.248 21.7323 24.2524 22.0717 23.6762L23.7398 20.8434C23.9004 20.5706 23.9006 20.2322 23.7403 19.9593L23.0526 18.7883C21.9737 16.9514 20.0027 15.8231 17.8724 15.8231Z" fill="white" fill-opacity="0.9"/>
</g>
</g>
</svg>
