<svg width="16" height="16" viewBox="0 0 16 16" fill="none" xmlns="http://www.w3.org/2000/svg">
<path fill-rule="evenodd" clip-rule="evenodd" d="M6.31372 3.87165C6.31372 3.38603 6.70985 2.99315 7.19614 2.9971C7.66953 3.00095 8.1284 3.00434 8.31286 3.00466C8.47267 3.00493 8.8027 3.00377 9.15926 3.00218C9.64329 3.00001 10.0365 3.39144 10.0365 3.87436C10.0365 4.90786 10.8743 5.74568 11.9078 5.74568H12.5429L12.553 5.74568C13.3748 5.74774 14.0419 6.41061 14.0492 7.23234L14.0493 7.24244L14.0635 9.47217C14.0697 10.4347 14.0729 11.1061 14.0079 11.6129C13.9448 12.1052 13.8252 12.3659 13.6405 12.5518C13.4558 12.7377 13.1958 12.8589 12.7039 12.9252C12.1976 12.9935 11.5261 12.9945 10.5636 12.9945H5.52668C4.56772 12.9945 3.89885 12.9935 3.39429 12.9256C2.90411 12.8596 2.64472 12.739 2.46015 12.554C2.27558 12.369 2.15554 12.1093 2.09071 11.619C2.02398 11.1143 2.02447 10.4454 2.0267 9.48643L2.03125 7.52402C2.03189 7.2487 2.03288 7.15197 2.04149 7.07626C2.12051 6.38066 2.67019 5.83223 3.36596 5.75479C3.44169 5.74636 3.53842 5.74558 3.81372 5.74557H3.81374H4.4398C5.47473 5.74557 6.31372 4.90658 6.31372 3.87165ZM3.81369 4.74557L3.81372 5.24557V4.74557H4.4398C4.92245 4.74557 5.31372 4.3543 5.31372 3.87165C5.31372 2.82988 6.16323 1.98867 7.20427 1.99713C7.67907 2.00099 8.13411 2.00435 8.31458 2.00466C8.47067 2.00493 8.79735 2.00378 9.15479 2.00219C10.1917 1.99755 11.0365 2.8363 11.0365 3.87436C11.0365 4.35558 11.4266 4.74568 11.9078 4.74568H12.5429L12.5555 4.74569C13.9251 4.74911 15.037 5.8539 15.0492 7.22345L15.0493 7.23605L15.0635 9.46578L15.0638 9.50247C15.0696 10.4196 15.0744 11.1587 14.9998 11.7401C14.9224 12.3436 14.7517 12.8522 14.3498 13.2567C13.948 13.6611 13.4405 13.835 12.8375 13.9163C12.2565 13.9946 11.5175 13.9946 10.6003 13.9945H10.5636H5.52668H5.49007C4.57638 13.9946 3.83997 13.9946 3.26092 13.9166C2.65978 13.8358 2.15372 13.6627 1.75223 13.2603C1.35073 12.8578 1.17884 12.3514 1.09934 11.75C1.02276 11.1708 1.02448 10.4344 1.02661 9.52074L1.0267 9.48411L1.03125 7.5217L1.03132 7.48907C1.03183 7.2586 1.03217 7.10165 1.04788 6.96338C1.17959 5.80405 2.09571 4.89 3.25533 4.76093C3.39364 4.74553 3.5506 4.74555 3.78107 4.74557L3.81369 4.74557ZM6.29659 8.9852C6.29659 8.01864 7.08003 7.2352 8.04632 7.2352C9.01262 7.2352 9.79605 8.01864 9.79605 8.9852C9.79605 9.95175 9.01262 10.7352 8.04632 10.7352C7.08003 10.7352 6.29659 9.95175 6.29659 8.9852ZM8.04632 6.2352C6.52763 6.2352 5.29659 7.46647 5.29659 8.9852C5.29659 10.5039 6.52763 11.7352 8.04632 11.7352C9.56501 11.7352 10.7961 10.5039 10.7961 8.9852C10.7961 7.46647 9.56501 6.2352 8.04632 6.2352Z" fill="white"/>
</svg>
