<svg width="16" height="16" viewBox="0 0 16 16" fill="none" xmlns="http://www.w3.org/2000/svg">
<path fill-rule="evenodd" clip-rule="evenodd" d="M10.7719 3.03551C10.9605 2.83375 11.2769 2.82304 11.4786 3.01158L12.7415 4.1917C12.9432 4.38024 12.954 4.69664 12.7654 4.8984L12.2347 5.46633L10.2412 3.60342L10.7719 3.03551ZM9.55844 4.33405L4.47456 9.77422C4.44112 9.81001 4.41311 9.85052 4.39145 9.89444L3.15808 12.3951C2.94332 12.8305 3.41262 13.2857 3.84128 13.0577L6.35045 11.7233C6.39918 11.6974 6.44329 11.6636 6.48099 11.6232L11.5519 6.19696L9.55844 4.33405ZM12.1614 2.28095C11.5561 1.71533 10.6069 1.74747 10.0413 2.35273L3.74393 9.09145C3.6436 9.19881 3.5596 9.32032 3.4946 9.4521L2.26123 11.9528C1.61695 13.259 3.02484 14.6245 4.31082 13.9406L6.81999 12.6062C6.96621 12.5284 7.09854 12.427 7.21161 12.306L13.496 5.58118C14.0617 4.9759 14.0295 4.02669 13.4243 3.46106L12.1614 2.28095Z" fill="white"/>
</svg>
