<svg width="16" height="16" viewBox="0 0 16 16" fill="none" xmlns="http://www.w3.org/2000/svg">
<path fill-rule="evenodd" clip-rule="evenodd" d="M6.99585 3.2459C6.81771 3.36259 6.58157 3.56933 6.2112 3.89625L4.20926 5.66334L4.18027 5.68907C4.07192 5.7855 3.93427 5.908 3.75948 5.9741C3.58469 6.04021 3.40043 6.03946 3.25538 6.03887L3.21662 6.03877H2.50001C2.25017 6.03877 2.11309 6.03983 2.018 6.05261L2.01435 6.05311L2.01385 6.05675C2.00107 6.15185 2.00001 6.28893 2.00001 6.53877V9.53877C2.00001 9.7886 2.00107 9.92568 2.01385 10.0208L2.01435 10.0244L2.01799 10.0249C2.11309 10.0377 2.25017 10.0388 2.50001 10.0388H3.2338L3.27297 10.0387C3.41953 10.0381 3.60574 10.0373 3.78206 10.1047C3.95838 10.1721 4.09659 10.2969 4.20536 10.3951L4.23448 10.4213L6.20852 12.1891C6.57949 12.5214 6.81642 12.7318 6.99537 12.851L7.00796 12.8593L7.01018 12.8444C7.04081 12.6316 7.04208 12.3147 7.04208 11.8167V4.2711C7.04208 3.77709 7.04081 3.46325 7.01041 3.25246L7.00823 3.23788L6.99585 3.2459ZM7.1278 3.17555C7.12773 3.17571 7.1259 3.17629 7.12253 3.17686C7.12619 3.17568 7.12788 3.1754 7.1278 3.17555ZM6.97834 3.1118C6.97653 3.10891 6.97576 3.10714 6.97583 3.10699C6.97589 3.10683 6.9768 3.10828 6.97834 3.1118ZM6.97515 12.9917C6.97508 12.9916 6.97586 12.9898 6.97769 12.9869C6.97613 12.9904 6.97522 12.9919 6.97515 12.9917ZM7.12322 12.9218C7.12662 12.9224 7.12847 12.923 7.12854 12.9232C7.12862 12.9234 7.12692 12.9231 7.12322 12.9218ZM6.44789 2.40939C6.69128 2.24996 7.05663 2.07234 7.45332 2.25131C7.85002 2.43028 7.95863 2.82173 8.00017 3.10971C8.04215 3.40082 8.04212 3.78854 8.04209 4.23258L8.04208 4.2711V11.8167L8.04209 11.8553C8.04212 12.3032 8.04215 12.6939 7.99998 12.9868C7.95838 13.2758 7.84954 13.6701 7.45005 13.8486C7.05057 14.0271 6.68423 13.8452 6.44119 13.6834C6.19482 13.5193 5.90383 13.2587 5.57013 12.9598L5.57012 12.9598L5.5414 12.9341L3.56736 11.1663C3.49189 11.0987 3.45417 11.0653 3.42542 11.043L3.4238 11.0418L3.42176 11.0416C3.38548 11.0391 3.3351 11.0388 3.2338 11.0388H2.50001L2.47281 11.0388C2.26077 11.0388 2.05471 11.0389 1.88475 11.016C1.69315 10.9902 1.47451 10.9275 1.2929 10.7459C1.11129 10.5643 1.04853 10.3456 1.02277 10.154C0.999921 9.98407 0.999962 9.77801 1 9.56597L1.00001 9.53877V6.53877L1 6.51156C0.999962 6.29953 0.999921 6.09346 1.02277 5.92351C1.04853 5.73191 1.11129 5.51327 1.2929 5.33166C1.47451 5.15005 1.69315 5.08729 1.88475 5.06153C2.0547 5.03868 2.26076 5.03872 2.4728 5.03876H2.4728L2.50001 5.03877H3.21662C3.31686 5.03877 3.36669 5.03848 3.40258 5.03596L3.40461 5.03581L3.40622 5.03458C3.4348 5.01272 3.47234 4.97996 3.5475 4.91362L5.54944 3.14653L5.57832 3.12103L5.57834 3.12102L5.57835 3.12101C5.91122 2.82715 6.20187 2.57056 6.44789 2.40939ZM10.1345 5.33705C10.2257 5.0764 10.5109 4.93904 10.7716 5.03024C11.5468 5.30151 12.1156 5.71986 12.4845 6.27356C12.851 6.8238 12.9896 7.46164 12.9888 8.12072C12.9881 8.77796 12.8479 9.366 12.4685 9.86532C12.095 10.3569 11.5331 10.7047 10.8038 10.9738C10.5448 11.0694 10.2573 10.9368 10.1617 10.6778C10.0661 10.4187 10.1986 10.1312 10.4577 10.0356C11.0913 9.80178 11.4579 9.54256 11.6723 9.26033C11.8809 8.98578 11.9883 8.63304 11.9888 8.11965C11.9894 7.59888 11.8804 7.17042 11.6522 6.82799C11.4264 6.489 11.0533 6.18827 10.4413 5.97413C10.1807 5.88293 10.0433 5.5977 10.1345 5.33705ZM10.5874 3.04353C10.3154 2.99564 10.0561 3.17728 10.0082 3.44924C9.96033 3.7212 10.142 3.98049 10.4139 4.02838C11.5592 4.23006 12.4289 4.71123 13.0117 5.38205C13.5932 6.05138 13.9207 6.9456 13.9201 8.03335C13.9195 9.12637 13.5988 9.99309 13.0242 10.6449C12.4457 11.301 11.573 11.7809 10.3984 12.0262C10.1281 12.0826 9.95475 12.3475 10.0112 12.6178C10.0676 12.8881 10.3325 13.0615 10.6028 13.005C11.9332 12.7272 13.0195 12.1623 13.7743 11.3062C14.5328 10.4458 14.9194 9.33307 14.9201 8.03388C14.9208 6.73732 14.5263 5.60066 13.7666 4.72622C13.0082 3.85326 11.9174 3.27775 10.5874 3.04353Z" fill="white"/>
</svg>
