<svg width="16" height="16" viewBox="0 0 16 16" fill="none" xmlns="http://www.w3.org/2000/svg">
<g clip-path="url(#clip0_2742_1728)">
<path fill-rule="evenodd" clip-rule="evenodd" d="M4.72321 8.06264C4.73195 8.03971 4.73195 8.01437 4.72321 7.99144L2.93938 3.30889C2.90694 3.22372 2.99603 3.14309 3.07755 3.18385L12.585 7.9376C12.6588 7.97445 12.6588 8.07963 12.585 8.11648L3.07755 12.8702C2.99603 12.911 2.90694 12.8304 2.93938 12.7452L4.72321 8.06264ZM1.09135 14.7872C1.05891 14.8724 1.14801 14.953 1.22952 14.9123L14.8211 8.11648C14.8948 8.07963 14.8948 7.97445 14.8211 7.9376L1.22952 1.1418C1.148 1.10104 1.05891 1.18167 1.09135 1.26684L3.6531 7.99144C3.66184 8.01437 3.66184 8.03971 3.65311 8.06264L1.09135 14.7872Z" fill="#F4F3F7"/>
</g>
<defs>
<clipPath id="clip0_2742_1728">
<rect width="14" height="14" fill="white" transform="matrix(1 0 0 -1 1 15.027)"/>
</clipPath>
</defs>
</svg>
