<svg width="16" height="16" viewBox="0 0 16 16" fill="none" xmlns="http://www.w3.org/2000/svg">
<path fill-rule="evenodd" clip-rule="evenodd" d="M5.16691 4.80907C5.16691 3.26979 6.41474 2.02195 7.95402 2.02195C9.4933 2.02195 10.7411 3.26979 10.7411 4.80907C10.7411 6.34835 9.4933 7.59618 7.95402 7.59618C6.41474 7.59618 5.16691 6.34835 5.16691 4.80907ZM7.95402 0.855286C5.77041 0.855286 4.00024 2.62545 4.00024 4.80907C4.00024 6.99268 5.77041 8.76285 7.95402 8.76285C10.1376 8.76285 11.9078 6.99268 11.9078 4.80907C11.9078 2.62545 10.1376 0.855286 7.95402 0.855286ZM4.15575 9.27756C4.4325 9.11264 4.52317 8.7546 4.35825 8.47784C4.19334 8.20108 3.83529 8.11042 3.55854 8.27533C3.36933 8.38808 3.17966 8.56828 3.01188 8.76082C2.83691 8.96161 2.65793 9.20806 2.49646 9.48287C2.17947 10.0224 1.89661 10.7287 1.89661 11.4554C1.89661 12.1019 2.00348 12.6589 2.26391 13.1356C2.52723 13.6176 2.91849 13.9644 3.3948 14.2373C3.82877 14.4859 4.28844 14.7229 5.00017 14.8898C5.69687 15.0532 6.61273 15.1447 7.96632 15.1447C10.6472 15.1447 12.0362 14.7757 12.9256 13.947C13.7419 13.1864 14.1056 12.364 14.1034 11.454C14.1019 10.8444 13.828 10.1724 13.5258 9.63859C13.2222 9.10251 12.8205 8.58443 12.4516 8.30901C12.1934 8.11628 11.8279 8.16932 11.6352 8.42747C11.4424 8.68563 11.4955 9.05115 11.7536 9.24388C11.9384 9.38183 12.2443 9.74335 12.5105 10.2135C12.778 10.6858 12.936 11.1466 12.9367 11.4567C12.938 11.9997 12.7419 12.5235 12.1303 13.0934C11.5918 13.5952 10.6118 13.9781 7.96632 13.9781C6.65672 13.9781 5.84052 13.8886 5.26661 13.754C4.70772 13.6229 4.35821 13.4447 3.97476 13.225C3.63364 13.0296 3.42248 12.8229 3.28774 12.5763C3.15011 12.3243 3.06327 11.9777 3.06327 11.4554C3.06327 11.0132 3.24349 10.5144 3.50234 10.0739C3.6288 9.85867 3.76592 9.67134 3.89146 9.52727C4.02419 9.37495 4.11944 9.29919 4.15575 9.27756Z" fill="#2A343D"/>
</svg>
