<svg width="16" height="16" viewBox="0 0 16 16" fill="none" xmlns="http://www.w3.org/2000/svg">
<path fill-rule="evenodd" clip-rule="evenodd" d="M7.72494 1.52226H9.97971L11.167 2.86037L10.7936 5.6293L13.1853 5.87088L14.6286 7.75836L14.1876 12.3919L12.3325 14.4777H7.95754L6.26089 13.4043H4.93204V14.4777H1.37134V6.65077H4.93204V7.68206H5.9719L7.72494 1.52226ZM4.93204 12.4043V8.68206H6.72702L8.48006 2.52226H9.53011L10.1147 3.18111L9.66441 6.52033L12.6539 6.8223L13.596 8.05417L13.2231 11.9717L11.8836 13.4777H8.24733L6.55068 12.4043H4.93204ZM3.93204 7.68206V7.65077H2.37134V13.4777H3.93204V13.4043V7.68206Z" fill="#F4F3F7"/>
</svg>
