<svg width="12" height="12" viewBox="0 0 12 12" fill="none" xmlns="http://www.w3.org/2000/svg">
    <path fill-rule="evenodd" clip-rule="evenodd" d="M10 1L2 1C1.44772 1 1 1.44772 1 2L1 10C1 10.5523 1.44772 11 2 11L10 11C10.5523 11 11 10.5523 11 10L11 2C11 1.44772 10.5523 1 10 1ZM2 0C0.895431 0 0 0.895431 0 2L0 10C0 11.1046 0.895431 12 2 12L10 12C11.1046 12 12 11.1046 12 10L12 2C12 0.895431 11.1046 0 10 0L2 0Z" fill="white"/>
    <path fill-rule="evenodd" clip-rule="evenodd" d="M4.5 11.1733L4.5 0.67334L5.5 0.67334L5.5 11.1733H4.5Z" fill="white"/>
    <path d="M1.75513 2.4729C1.75513 2.19676 1.97898 1.9729 2.25513 1.9729L3.25513 1.9729C3.53127 1.9729 3.75513 2.19676 3.75513 2.4729C3.75513 2.74904 3.53127 2.9729 3.25513 2.9729H2.25513C1.97898 2.9729 1.75513 2.74904 1.75513 2.4729Z" fill="white"/>
    <path d="M1.75513 4.4729C1.75513 4.19676 1.97898 3.9729 2.25513 3.9729L3.25513 3.9729C3.53127 3.9729 3.75513 4.19676 3.75513 4.4729C3.75513 4.74904 3.53127 4.9729 3.25513 4.9729H2.25513C1.97898 4.9729 1.75513 4.74904 1.75513 4.4729Z" fill="white"/>
</svg>
