<svg width="16" height="16" viewBox="0 0 16 16" fill="none" xmlns="http://www.w3.org/2000/svg">
    <rect x="11.5046" y="3.5" width="4" height="1" rx="0.5" fill="#2A343D"/>
    <rect x="14.0046" y="2" width="4" height="1" rx="0.5" transform="rotate(90 14.0046 2)" fill="#2A343D"/>
    <rect x="4" y="7" width="8" height="1" rx="0.5" fill="#2A343D"/>
    <rect x="4" y="9" width="8" height="1" rx="0.5" fill="#2A343D"/>
    <rect x="3.99072" y="11.0122" width="8.01952" height="1" rx="0.5" fill="#2A343D"/>
    <path d="M9.69761 2.5H4.2901C3.37809 2.5 2.51025 2.95814 2.51025 4.31925C2.51025 5.68036 2.51025 9.76032 2.51025 11.6302C2.51025 12.4628 3.19142 13.5 4.51751 13.5C5.84361 13.5 9.72145 13.5 11.6271 13.5C12.7692 13.5 13.5046 12.9342 13.5046 11.6232C13.5046 10.599 13.5046 9.50764 13.5046 8.93489"
          stroke="#2A343D" stroke-linecap="round"/>
</svg>
