<svg width="16" height="16" viewBox="0 0 16 16" fill="none" xmlns="http://www.w3.org/2000/svg">
<path fill-rule="evenodd" clip-rule="evenodd" d="M7.99468 2.03568C8.27083 2.03568 8.49468 2.25953 8.49468 2.53568V9.49166C8.49468 9.52273 8.53687 9.54374 8.55855 9.52148L10.5952 7.43046C10.7879 7.23264 11.1045 7.22847 11.3023 7.42115C11.5001 7.61382 11.5043 7.93038 11.3116 8.12819L9.08245 10.4168C8.49216 11.0229 7.51775 11.0211 6.92964 10.413L4.65768 8.06357C4.46571 7.86506 4.47102 7.54852 4.66952 7.35656C4.86803 7.1646 5.18457 7.1699 5.37653 7.36841L7.44934 9.51186C7.46518 9.52824 7.49468 9.51445 7.49468 9.49166V2.53568C7.49468 2.25953 7.71854 2.03568 7.99468 2.03568ZM3.01236 11.004C3.01236 10.7278 2.7885 10.504 2.51236 10.504C2.23622 10.504 2.01236 10.7278 2.01236 11.004V12.4643C2.01236 13.2928 2.68393 13.9643 3.51236 13.9643H12.5C13.3284 13.9643 14 13.2928 14 12.4643V11.004C14 10.7278 13.7761 10.504 13.5 10.504C13.2239 10.504 13 10.7278 13 11.004V12.4643C13 12.7405 12.7761 12.9643 12.5 12.9643H3.51236C3.23622 12.9643 3.01236 12.7405 3.01236 12.4643V11.004Z" fill="#2A343D"/>
</svg>
