<svg width="16" height="16" viewBox="0 0 16 16" fill="none" xmlns="http://www.w3.org/2000/svg">
<path d="M9.66367 9.13101C8.94494 9.508 8.52601 9.54318 8.01373 11.1121C7.72124 12.0079 7.75492 13.3286 7.3878 13.7089C6.78043 14.3381 5.48604 13.9743 5.48604 12.3536C5.48604 11.057 6.07372 9.92737 6.30069 9.58832C5.29196 9.66366 3.4372 9.58832 2.74715 9.58832C1.80566 9.58832 0.849698 8.91329 1.90887 5.59644C2.56324 3.54723 3.41619 2.50042 6.60213 2.55849C9.78807 2.61657 8.60581 2.62808 9.67493 2.62808" stroke="white" stroke-linecap="round" stroke-linejoin="round"/>
<rect x="14.2778" y="9.93481" width="2.66918" height="7.43479" rx="1" transform="rotate(-180 14.2778 9.93481)" stroke="white" stroke-linejoin="round"/>
</svg>
