<svg width="17" height="16" viewBox="0 0 17 16" fill="none" xmlns="http://www.w3.org/2000/svg">
<path fill-rule="evenodd" clip-rule="evenodd" d="M12.6482 7.99957C12.6482 7.76833 12.7537 7.54974 12.9348 7.40594L14.079 6.49733C14.4529 6.20043 14.5647 5.68067 14.3461 5.25626L13.9447 4.47712C13.7363 4.07263 13.2812 3.8598 12.8372 3.95925L11.5226 4.25369C11.2765 4.30881 11.0187 4.26892 10.8008 4.14202L10.5924 4.02069C10.3413 3.87446 10.1663 3.62626 10.1128 3.34066L9.97276 2.59322C9.88414 2.12017 9.47113 1.77734 8.98985 1.77734H8.55737H8.01026C7.52898 1.77734 7.11597 2.12017 7.02735 2.59322L6.88734 3.34066C6.83384 3.62626 6.65876 3.87446 6.40767 4.02069L6.19932 4.14202C5.98141 4.26892 5.72359 4.30881 5.47752 4.25369L4.16293 3.95925C3.71893 3.8598 3.26376 4.07263 3.05539 4.47712L2.65401 5.25626C2.43538 5.68067 2.54724 6.20043 2.92111 6.49733L4.06528 7.40594C4.24636 7.54974 4.35191 7.76833 4.35191 7.99957V7.99957C4.35191 8.2308 4.24636 8.44939 4.06528 8.5932L2.92111 9.5018C2.54724 9.7987 2.43538 10.3185 2.65401 10.7429L3.05539 11.522C3.26376 11.9265 3.71893 12.1393 4.16293 12.0399L5.47752 11.7454C5.72359 11.6903 5.98141 11.7302 6.19932 11.8571L6.40767 11.9784C6.65876 12.1247 6.83384 12.3729 6.88734 12.6585L7.02735 13.4059C7.11597 13.879 7.52898 14.2218 8.01026 14.2218H8.55737H8.98985C9.47113 14.2218 9.88414 13.879 9.97276 13.4059L10.1128 12.6585C10.1663 12.3729 10.3413 12.1247 10.5924 11.9784L10.8008 11.8571C11.0187 11.7302 11.2765 11.6903 11.5226 11.7454L12.8372 12.0399C13.2812 12.1393 13.7363 11.9265 13.9447 11.522L14.3461 10.7429C14.5647 10.3185 14.4529 9.7987 14.079 9.5018L12.9348 8.5932C12.7537 8.44939 12.6482 8.2308 12.6482 7.99957V7.99957Z" stroke="white" stroke-linecap="round" stroke-linejoin="round"/>
<path fill-rule="evenodd" clip-rule="evenodd" d="M9.39353 10.1545C10.5839 9.66137 11.149 8.29676 10.6559 7.10677C10.1632 5.91638 8.79852 5.35133 7.6081 5.84405C6.41768 6.33716 5.85262 7.70177 6.34574 8.89215C6.83847 10.0821 8.20311 10.6476 9.39353 10.1545Z" stroke="white"/>
</svg>
