<svg width="32" height="32" viewBox="0 0 32 32" fill="none" xmlns="http://www.w3.org/2000/svg">
<g clip-path="url(#clip0_349_17467)">
<path d="M9.61114 18.6805L7.66938 22.6837C6.99316 24.0778 8.47085 25.5351 9.82058 24.8052L13.7709 22.669C13.9244 22.586 14.0633 22.4778 14.1819 22.3486L24.0759 11.5831C24.6696 10.9371 24.6358 9.92408 24.0006 9.32042L22.0124 7.43122C21.3771 6.82757 20.3809 6.86187 19.7872 7.50784L9.87284 18.2956C9.76754 18.4102 9.67936 18.5398 9.61114 18.6805Z" fill="#5021FF"/>
<path d="M19.2418 20.347C19.3286 19.9465 19.9 19.9465 19.9868 20.347L20.3264 21.9133C20.3581 22.0594 20.4721 22.1734 20.6182 22.2051L22.1845 22.5447C22.585 22.6316 22.585 23.2029 22.1845 23.2898L20.6182 23.6294C20.4721 23.661 20.3581 23.7751 20.3264 23.9211L19.9868 25.4875C19.9 25.888 19.3286 25.888 19.2418 25.4875L18.9021 23.9211C18.8705 23.7751 18.7564 23.661 18.6104 23.6294L17.0441 23.2898C16.6435 23.2029 16.6435 22.6316 17.0441 22.5447L18.6104 22.2051C18.7564 22.1734 18.8705 22.0594 18.9021 21.9133L19.2418 20.347Z" fill="#5021FF"/>
<path d="M9.33016 8.28021C9.41117 7.9066 9.94412 7.9066 10.0251 8.28021L10.3419 9.74124C10.3714 9.87745 10.4778 9.98384 10.6141 10.0134L12.0751 10.3302C12.4487 10.4112 12.4487 10.9441 12.0751 11.0251L10.6141 11.3419C10.4778 11.3714 10.3714 11.4778 10.3419 11.6141L10.0251 13.0751C9.94411 13.4487 9.41117 13.4487 9.33016 13.0751L9.01337 11.6141C8.98384 11.4778 8.87745 11.3714 8.74124 11.3419L7.28021 11.0251C6.9066 10.9441 6.9066 10.4112 7.28021 10.3302L8.74124 10.0134C8.87745 9.98384 8.98384 9.87745 9.01337 9.74124L9.33016 8.28021Z" fill="#5021FF"/>
<circle cx="22.8579" cy="17.3462" r="0.911621" fill="#5021FF"/>
</g>
<defs>
<clipPath id="clip0_349_17467">
<rect width="20" height="20" fill="white" transform="translate(6 6)"/>
</clipPath>
</defs>
</svg>
