<svg width="16" height="16" viewBox="0 0 16 16" fill="none" xmlns="http://www.w3.org/2000/svg">
<path fill-rule="evenodd" clip-rule="evenodd" d="M2.5 4.99997C2.5 3.61926 3.61929 2.49997 5 2.49997H7C7.27614 2.49997 7.5 2.72383 7.5 2.99997C7.5 3.27611 7.27614 3.49997 7 3.49997H5C4.17157 3.49997 3.5 4.17154 3.5 4.99997V11C3.5 11.8284 4.17157 12.5 5 12.5H11C11.8284 12.5 12.5 11.8284 12.5 11V8.99997C12.5 8.72383 12.7239 8.49997 13 8.49997C13.2761 8.49997 13.5 8.72383 13.5 8.99997V11C13.5 12.3807 12.3807 13.5 11 13.5H5C3.61929 13.5 2.5 12.3807 2.5 11V4.99997Z" fill="white"/>
<path d="M10 3H13M13 3V6M13 3L8 8" stroke="white" stroke-linecap="round"/>
</svg>
