<svg width="16" height="16" viewBox="0 0 16 16" fill="none" xmlns="http://www.w3.org/2000/svg">
<g id="Name=Snapshot, Size=Default">
<g id="Vector">
<path fill-rule="evenodd" clip-rule="evenodd" d="M1.5 5.2345V13.3535H14.5V5.2345L13.5 5.2345C12.3954 5.2345 11.5 4.33907 11.5 3.2345V2.85355L4.5 2.85355V3.2345C4.5 4.33907 3.60457 5.2345 2.5 5.2345H1.5ZM0.5 5.2345V13.3535C0.5 13.9058 0.947715 14.3535 1.5 14.3535H14.5C15.0523 14.3535 15.5 13.9058 15.5 13.3535V5.2345C15.5 4.68221 15.0523 4.2345 14.5 4.2345H13.5C12.9477 4.2345 12.5 3.78678 12.5 3.2345V2.85355C12.5 2.30126 12.0523 1.85355 11.5 1.85355H4.5C3.94772 1.85355 3.5 2.30126 3.5 2.85355V3.2345C3.5 3.78678 3.05228 4.2345 2.5 4.2345H1.5C0.947715 4.2345 0.5 4.68221 0.5 5.2345Z" fill="#F4F3F7"/>
<path fill-rule="evenodd" clip-rule="evenodd" d="M8 10.8535C9.38071 10.8535 10.5 9.73426 10.5 8.35355C10.5 6.97283 9.38071 5.85355 8 5.85355C6.61929 5.85355 5.5 6.97283 5.5 8.35355C5.5 9.73426 6.61929 10.8535 8 10.8535ZM8 11.8535C9.933 11.8535 11.5 10.2865 11.5 8.35355C11.5 6.42055 9.933 4.85355 8 4.85355C6.067 4.85355 4.5 6.42055 4.5 8.35355C4.5 10.2865 6.067 11.8535 8 11.8535Z" fill="#F4F3F7"/>
</g>
</g>
</svg>
