<svg width="13" height="13" viewBox="0 0 13 13" fill="none" xmlns="http://www.w3.org/2000/svg">
<g id="Vector">
<path fill-rule="evenodd" clip-rule="evenodd" d="M4.31818 0.5L0.5 0.500002L0.5 12.5L12.5 12.5V8.68182H11.5V11.5L1.5 11.5L1.5 1.5L4.31818 1.5V0.5Z" fill="#F4F3F7"/>
<path fill-rule="evenodd" clip-rule="evenodd" d="M11.9546 0.545456C12.2307 0.545456 12.4546 0.769314 12.4546 1.04546V5.54546C12.4546 5.8216 12.2307 6.04546 11.9546 6.04546C11.6784 6.04546 11.4546 5.8216 11.4546 5.54546V2.25256L4.67175 9.03537L3.96464 8.32827L10.7475 1.54546L7.45456 1.54546C7.17842 1.54546 6.95456 1.3216 6.95456 1.04546C6.95456 0.769313 7.17842 0.545456 7.45456 0.545456L11.9546 0.545456Z" fill="#F4F3F7"/>
</g>
</svg>
