<svg width="16" height="16" viewBox="0 0 16 16" fill="none" xmlns="http://www.w3.org/2000/svg">
<path d="M3.64362 8C3.64362 5.70971 5.50027 3.85306 7.79056 3.85306C9.06546 3.85306 10.2057 4.42783 10.9671 5.33399C11.0399 5.42066 11.0743 5.56524 10.9942 5.64529L10.5291 6.11042C10.2141 6.4254 10.4372 6.96397 10.8826 6.96397H12.75C13.0261 6.96397 13.25 6.74012 13.25 6.46397V4.59661C13.25 4.15116 12.7114 3.92808 12.3964 4.24306L11.8532 4.78629C11.7983 4.84125 11.7013 4.81863 11.6513 4.75912C10.7273 3.65953 9.34048 2.95944 7.79056 2.95944C5.00674 2.95944 2.75 5.21618 2.75 8C2.75 10.7838 5.00674 13.0406 7.79056 13.0406C9.95003 13.0406 11.7913 11.6828 12.5092 9.7759C12.5962 9.54496 12.4795 9.28726 12.2485 9.2003C12.0176 9.11335 11.7599 9.23007 11.6729 9.46101C11.0818 11.0311 9.5659 12.1469 7.79056 12.1469C5.50027 12.1469 3.64362 10.2903 3.64362 8Z" fill="white"/>
</svg>
