<svg width="16" height="16" viewBox="0 0 16 16" fill="none" xmlns="http://www.w3.org/2000/svg">
<g clip-path="url(#clip0_140_27615)">
<path fill-rule="evenodd" clip-rule="evenodd" d="M8 15C11.866 15 15 11.866 15 8C15 4.13401 11.866 1 8 1C4.13401 1 1 4.13401 1 8C1 11.866 4.13401 15 8 15ZM8 14C11.3137 14 14 11.3137 14 8C14 4.68629 11.3137 2 8 2C4.68629 2 2 4.68629 2 8C2 11.3137 4.68629 14 8 14Z" fill="#F4F3F7"/>
<path d="M7.5 7H8.5V11H7.5V7Z" fill="#F4F3F7"/>
<path d="M7.5 5H8.5V6H7.5V5Z" fill="#F4F3F7"/>
</g>
<defs>
<clipPath id="clip0_140_27615">
<rect width="14" height="14" fill="white" transform="translate(1 1)"/>
</clipPath>
</defs>
</svg>
