<svg width="17" height="16" viewBox="0 0 17 16" fill="none" xmlns="http://www.w3.org/2000/svg">
<path fill-rule="evenodd" clip-rule="evenodd" d="M12.6482 8.00005C12.6482 7.76882 12.7537 7.55023 12.9348 7.40642L14.079 6.49782C14.4529 6.20092 14.5647 5.68116 14.3461 5.25675L13.9447 4.4776C13.7363 4.07312 13.2812 3.86029 12.8372 3.95974L11.5226 4.25418C11.2765 4.3093 11.0187 4.26941 10.8008 4.14251L10.5924 4.02117C10.3413 3.87495 10.1663 3.62675 10.1128 3.34115L9.97276 2.59371C9.88414 2.12066 9.47113 1.77783 8.98985 1.77783H8.55737H8.01026C7.52898 1.77783 7.11597 2.12066 7.02735 2.59371L6.88734 3.34115C6.83384 3.62675 6.65876 3.87495 6.40767 4.02117L6.19932 4.14251C5.98141 4.26941 5.72359 4.3093 5.47752 4.25418L4.16293 3.95974C3.71893 3.86029 3.26376 4.07312 3.05539 4.4776L2.65401 5.25675C2.43538 5.68116 2.54724 6.20092 2.92111 6.49782L4.06528 7.40642C4.24636 7.55023 4.35191 7.76882 4.35191 8.00005V8.00005C4.35191 8.23129 4.24636 8.44988 4.06528 8.59368L2.92111 9.50229C2.54724 9.79919 2.43538 10.319 2.65401 10.7434L3.05539 11.5225C3.26376 11.927 3.71893 12.1398 4.16293 12.0404L5.47752 11.7459C5.72359 11.6908 5.98141 11.7307 6.19932 11.8576L6.40767 11.9789C6.65876 12.1252 6.83384 12.3734 6.88734 12.659L7.02735 13.4064C7.11597 13.8795 7.52898 14.2223 8.01026 14.2223H8.55737H8.98985C9.47113 14.2223 9.88414 13.8795 9.97276 13.4064L10.1128 12.659C10.1663 12.3734 10.3413 12.1252 10.5924 11.9789L10.8008 11.8576C11.0187 11.7307 11.2765 11.6908 11.5226 11.7459L12.8372 12.0404C13.2812 12.1398 13.7363 11.927 13.9447 11.5225L14.3461 10.7434C14.5647 10.319 14.4529 9.79919 14.079 9.50229L12.9348 8.59368C12.7537 8.44988 12.6482 8.23129 12.6482 8.00005V8.00005Z" stroke="#2A343D" stroke-linecap="round" stroke-linejoin="round"/>
<path fill-rule="evenodd" clip-rule="evenodd" d="M9.39353 10.1552C10.5839 9.66211 11.149 8.2975 10.6559 7.1075C10.1632 5.91711 8.79852 5.35206 7.6081 5.84478C6.41768 6.33789 5.85262 7.7025 6.34574 8.89288C6.83847 10.0829 8.20311 10.6483 9.39353 10.1552Z" stroke="#2A343D"/>
</svg>
