<svg width="17" height="16" viewBox="0 0 17 16" fill="none" xmlns="http://www.w3.org/2000/svg">
<g clip-path="url(#clip0_1313_24294)">
<path fill-rule="evenodd" clip-rule="evenodd" d="M11.7283 4.3648C10.9022 3.577 9.7999 3.14783 8.65935 3.16546C6.57228 3.16546 4.79973 4.5735 4.16772 6.4695V6.46954C3.83261 7.46311 3.83261 8.53898 4.16772 9.53255H4.17065C4.8056 11.4256 6.57521 12.8337 8.6623 12.8337C9.73965 12.8337 10.6646 12.5581 11.3814 12.0714V12.0694C12.2251 11.5109 12.8012 10.632 12.9805 9.63839H8.65936V6.55774H16.2052C16.2993 7.09274 16.3434 7.6395 16.3434 8.18331C16.3434 10.6165 15.4738 12.6737 13.9607 14.0671L13.9623 14.0683C12.6366 15.2911 10.817 15.9996 8.65936 15.9996C5.63455 15.9996 2.86843 14.2946 1.51036 11.5932V11.5932C0.375696 9.33266 0.375698 6.66943 1.51036 4.40892H1.51038L1.51036 4.4089C2.86843 1.7045 5.63455 -0.000437452 8.65935 -0.000437452C10.6465 -0.0239539 12.566 0.722693 14.0123 2.08077L11.7283 4.3648Z" fill="white"/>
</g>
<defs>
<clipPath id="clip0_1313_24294">
<rect width="16" height="16" fill="white" transform="translate(0.5)"/>
</clipPath>
</defs>
</svg>
