<svg width="16" height="17" viewBox="0 0 16 17" fill="none" xmlns="http://www.w3.org/2000/svg">
<g id="Icon">
<path id="Vector" d="M5.82088 2.66441C4.19576 3.22093 2.81188 4.43624 2.04446 5.97248C1.77714 6.50219 1.58176 7.06717 1.46467 7.64837C1.16984 9.09645 1.37509 10.6404 2.04305 11.9587C2.47684 12.8193 3.09966 13.5846 3.85438 14.1848C4.56677 14.7526 5.39696 15.1723 6.27653 15.4065C7.38674 15.7041 8.5689 15.6978 9.68687 15.4431C10.6969 15.2104 11.6534 14.7279 12.4166 14.0233C13.2235 13.282 13.799 12.3051 14.103 11.2555C14.4352 10.1107 14.4811 8.88837 14.273 7.71609C12.1817 7.71538 10.091 7.71538 7.99968 7.71609C7.99968 8.58366 7.99898 9.45053 8.00039 10.3181C9.21147 10.3181 10.4225 10.3174 11.6336 10.3181C11.4933 11.149 10.9995 11.9094 10.2991 12.377C9.85897 12.6732 9.35253 12.8651 8.83129 12.9568C8.30651 13.0464 7.7641 13.0577 7.24003 12.9519C6.70749 12.8454 6.19894 12.6239 5.75598 12.3107C5.04711 11.8127 4.50611 11.0841 4.22821 10.2638C3.94395 9.42937 3.94184 8.50114 4.22962 7.66742C4.42923 7.07987 4.76074 6.53746 5.19735 6.09591C5.73482 5.54574 6.43382 5.15145 7.18783 4.99064C7.83322 4.85309 8.51318 4.87919 9.14516 5.07034C9.68193 5.23327 10.1771 5.5274 10.5827 5.91464C10.9925 5.50695 11.4002 5.09714 11.8092 4.68875C12.0237 4.46868 12.2494 4.25919 12.4568 4.03278C11.8353 3.45792 11.1074 2.99592 10.3111 2.7032C8.87854 2.17631 7.2633 2.16503 5.82088 2.66441Z" fill="white"/>
<path id="Vector_2" d="M5.8209 2.66441C7.26333 2.16502 8.87856 2.17631 10.3118 2.7039C11.1075 2.99592 11.8361 3.45792 12.4575 4.03348C12.2494 4.25919 12.0244 4.46938 11.81 4.68945C11.4009 5.09784 10.9932 5.50765 10.5834 5.91534C10.1778 5.5281 9.68266 5.23397 9.14589 5.07104C8.5139 4.87989 7.83395 4.85379 7.18856 4.99134C6.43525 5.15286 5.73555 5.54644 5.19737 6.09732C4.76147 6.53886 4.42925 7.08127 4.22964 7.66882C3.50102 7.10314 2.7724 6.53745 2.04378 5.97247C2.81119 4.43623 4.19508 3.22092 5.8209 2.66441Z" fill="#E43729"/>
<path id="Vector_3" d="M1.46467 7.64837C1.58176 7.06717 1.77714 6.50219 2.04376 5.97248C2.77238 6.53746 3.50029 7.10244 4.22891 7.66742C3.94113 8.50113 3.94325 9.42937 4.2275 10.2638C3.49959 10.8288 2.77167 11.3945 2.04305 11.9587C1.37509 10.6404 1.16984 9.09644 1.46467 7.64837Z" fill="#FABE00"/>
<path id="Vector_4" d="M7.99968 7.71609C10.091 7.71609 12.1817 7.71539 14.273 7.71609C14.4811 8.88837 14.4352 10.11 14.103 11.2555C13.7983 12.3051 13.2227 13.282 12.4165 14.0233C11.7112 13.4738 11.0037 12.9272 10.2984 12.377C10.9988 11.9094 11.4925 11.149 11.6329 10.3181C10.4218 10.3174 9.21076 10.3181 7.99968 10.3181C7.99898 9.45124 8.00039 8.58366 7.99968 7.71609Z" fill="#597DBE"/>
<path id="Vector_5" d="M2.04295 11.9587C2.77157 11.3945 3.49949 10.8288 4.2274 10.2638C4.50531 11.0841 5.04631 11.8127 5.75518 12.3107C6.19884 12.6232 6.70669 12.8454 7.23923 12.9519C7.76259 13.0577 8.305 13.0464 8.83048 12.9568C9.35173 12.8651 9.85817 12.6732 10.2983 12.377C11.0036 12.9272 11.7111 13.4738 12.4165 14.0233C11.6533 14.7279 10.6975 15.2104 9.68677 15.4431C8.5688 15.6978 7.38664 15.7041 6.27643 15.4065C5.39616 15.1723 4.56597 14.7526 3.85428 14.1848C3.09956 13.5853 2.47745 12.82 2.04295 11.9587Z" fill="#33A044"/>
</g>
</svg>
