<svg width="16" height="16" viewBox="0 0 16 16" fill="none" xmlns="http://www.w3.org/2000/svg">
<path fill-rule="evenodd" clip-rule="evenodd" d="M6.03586 2.50158C6.16878 1.79201 6.7883 1.27777 7.51021 1.27777H8.48981C9.21173 1.27777 9.83124 1.79201 9.96417 2.50158L10.1042 3.24903C10.1309 3.39183 10.2185 3.51593 10.344 3.58904L10.5524 3.71037C10.6613 3.77382 10.7902 3.79377 10.9133 3.76621L12.2279 3.47177C12.8939 3.32259 13.5766 3.64183 13.8892 4.24856L14.2905 5.02771C14.6185 5.66432 14.4507 6.44397 13.8899 6.88931L12.7457 7.79792C12.6841 7.84687 12.6482 7.92128 12.6482 7.99999C12.6482 8.07871 12.6841 8.15312 12.7457 8.20207L13.8899 9.11068C14.4507 9.55602 14.6185 10.3357 14.2905 10.9723L13.8892 11.7514C13.5766 12.3582 12.8939 12.6774 12.2279 12.5282L10.9133 12.2338C10.7902 12.2062 10.6613 12.2262 10.5524 12.2896L10.344 12.4109C10.2185 12.4841 10.1309 12.6082 10.1042 12.751L9.96417 13.4984C9.83124 14.208 9.21173 14.7222 8.48981 14.7222H7.51021C6.7883 14.7222 6.16878 14.208 6.03586 13.4984L5.89584 12.751C5.86909 12.6082 5.78156 12.4841 5.65601 12.4109L5.44766 12.2896C5.3387 12.2262 5.2098 12.2062 5.08676 12.2338L3.77217 12.5282C3.10617 12.6774 2.42342 12.3582 2.11086 11.7514L1.70948 10.9723C1.38153 10.3357 1.54932 9.55602 2.11012 9.11068L3.25429 8.20207C3.31594 8.15312 3.35186 8.07871 3.35186 7.99999C3.35186 7.92128 3.31594 7.84687 3.25429 7.79792L2.11012 6.88931C1.54932 6.44397 1.38153 5.66432 1.70948 5.02771L2.11086 4.24856C2.42342 3.64183 3.10617 3.32259 3.77217 3.47177L5.08676 3.76621C5.2098 3.79377 5.3387 3.77382 5.44766 3.71037L5.65601 3.58904C5.78156 3.51593 5.86909 3.39183 5.89584 3.24903L6.03586 2.50158ZM7.51021 2.27777C7.26958 2.27777 7.06307 2.44918 7.01876 2.68571L6.87875 3.43315C6.7985 3.86155 6.53588 4.23385 6.15925 4.45319L5.9509 4.57452C5.62403 4.76487 5.23731 4.82471 4.86819 4.74203L3.55361 4.44759C3.33161 4.39786 3.10402 4.50428 2.99984 4.70652L2.59846 5.48567C2.48914 5.69787 2.54507 5.95775 2.73201 6.1062L3.87618 7.01481C4.1767 7.25346 4.35187 7.61623 4.35187 7.99999C4.35187 8.38375 4.1767 8.74653 3.87618 8.98518L2.73201 9.89379C2.54507 10.0422 2.48914 10.3021 2.59846 10.5143L2.99984 11.2935C3.10402 11.4957 3.33161 11.6021 3.55361 11.5524L4.86819 11.258C5.23731 11.1753 5.62403 11.2351 5.9509 11.4255L6.15925 11.5468C6.53588 11.7661 6.7985 12.1384 6.87875 12.5668L7.01876 13.3143C7.06307 13.5508 7.26958 13.7222 7.51021 13.7222H8.48981C8.73045 13.7222 8.93696 13.5508 8.98126 13.3143L9.12128 12.5668C9.20153 12.1384 9.46414 11.7661 9.84078 11.5468L10.0491 11.4255C10.376 11.2351 10.7627 11.1753 11.1318 11.258L12.4464 11.5524C12.6684 11.6021 12.896 11.4957 13.0002 11.2935L13.4016 10.5143C13.5109 10.3021 13.455 10.0422 13.268 9.89379L12.1238 8.98518C11.8233 8.74653 11.6482 8.38375 11.6482 7.99999C11.6482 7.61623 11.8233 7.25346 12.1238 7.01481L13.268 6.1062C13.455 5.95775 13.5109 5.69787 13.4016 5.48567L13.0002 4.70652C12.896 4.50428 12.6684 4.39786 12.4464 4.44759L11.1318 4.74203C10.7627 4.82471 10.376 4.76487 10.0491 4.57452L9.84078 4.45319C9.46414 4.23385 9.20153 3.86155 9.12128 3.43315L8.98126 2.68571C8.93696 2.44918 8.73045 2.27777 8.48981 2.27777H7.51021Z" fill="white"/>
<path fill-rule="evenodd" clip-rule="evenodd" d="M6.91682 5.38273C8.36212 4.78451 10.0193 5.47041 10.6177 6.91603C11.2166 8.36119 10.5303 10.0183 9.08482 10.6171C7.63932 11.2159 5.98218 10.5293 5.38375 9.08418M7.2994 6.30666C8.23484 5.91955 9.30683 6.36368 9.69385 7.29867C10.0812 8.2335 9.63743 9.30578 8.70213 9.69322C7.76682 10.0807 6.69471 9.63634 6.30765 8.70154C5.92021 7.76628 6.36423 6.69411 7.2994 6.30666ZM6.91682 5.38273C5.47127 5.98153 4.78501 7.63873 5.38375 9.08418L6.91682 5.38273Z" fill="white"/>
</svg>
