<svg width="16" height="16" viewBox="0 0 16 16" fill="none" xmlns="http://www.w3.org/2000/svg">
<path fill-rule="evenodd" clip-rule="evenodd" d="M8.27506 14.4777H6.02029L4.83299 13.1396L5.20638 10.3707L2.81473 10.1291L1.37136 8.24164L1.81236 3.60806L3.66749 1.52226H8.04246L9.73911 2.59574H11.068V1.52226H14.6287V9.34923H11.068V8.31794H10.0281L8.27506 14.4777ZM11.068 3.59574V7.31794H9.27298L7.51994 13.4777H6.46989L5.8853 12.8189L6.33559 9.47967L3.34605 9.1777L2.40403 7.94583L2.77688 4.02832L4.11638 2.52226H7.75267L9.44932 3.59574H11.068ZM12.068 8.31794V8.34923H13.6287V2.52226H12.068V2.59574V8.31794Z" fill="#F4F3F7"/>
</svg>
